<?xml version="1.0" encoding="UTF-8" standalone="no"?>
<!-- Generator: Adobe Illustrator 13.0.1, SVG Export Plug-In . SVG Version: 6.00 Build 14948)  -->

<svg
   xmlns:dc="http://purl.org/dc/elements/1.1/"
   xmlns:cc="http://creativecommons.org/ns#"
   xmlns:rdf="http://www.w3.org/1999/02/22-rdf-syntax-ns#"
   xmlns:svg="http://www.w3.org/2000/svg"
   xmlns="http://www.w3.org/2000/svg"
   xmlns:sodipodi="http://sodipodi.sourceforge.net/DTD/sodipodi-0.dtd"
   xmlns:inkscape="http://www.inkscape.org/namespaces/inkscape"
   version="1.1"
   x="0px"
   y="0px"
   width="73.875px"
   height="77.5px"
   viewBox="0 0 73.875 77.5"
   enable-background="new 0 0 73.875 77.5"
   xml:space="preserve"
   id="svg2"
   inkscape:version="0.48.0 r9654"
   sodipodi:docname="UofPittsburgh_Seal.svg"><metadata
   id="metadata140"><rdf:RDF><cc:Work
       rdf:about=""><dc:format>image/svg+xml</dc:format><dc:type
         rdf:resource="http://purl.org/dc/dcmitype/StillImage" /></cc:Work></rdf:RDF></metadata><defs
   id="defs138">
	
	
	
	
	
	
	
	
	
	
	
	
	
	
	
	
	
	
	
	
	
	
	
	
	
	
	
	
	
	
	
	
	
	
	
	
	
	
	
	
	
	
	
	
	
	
	
	
	
	
	
	
	
	
	
	
	
	
	
	
	
	
	
	
	
</defs><sodipodi:namedview
   pagecolor="#ffffff"
   bordercolor="#666666"
   borderopacity="1"
   objecttolerance="10"
   gridtolerance="10"
   guidetolerance="10"
   inkscape:pageopacity="0"
   inkscape:pageshadow="2"
   inkscape:window-width="1280"
   inkscape:window-height="998"
   id="namedview136"
   showgrid="false"
   inkscape:zoom="10.464516"
   inkscape:cx="36.9375"
   inkscape:cy="38.75"
   inkscape:window-x="1436"
   inkscape:window-y="-4"
   inkscape:window-maximized="1"
   inkscape:current-layer="svg2" />
<path
   style="fill:#ffffff;fill-opacity:1"
   inkscape:connector-curvature="0"
   id="path107-1-7"
   d="m 37.357999,3.2772285 c -19.485772,0 -35.3391988,15.8482625 -35.3391988,35.3268045 0,19.478544 15.8534268,35.324739 35.3391988,35.324739 19.486806,0 35.339201,-15.846195 35.339201,-35.324738 0,-19.478543 -15.852395,-35.3268055 -35.339201,-35.3268055 z m 27.88241,35.3268045 c 0,15.3928 -12.483413,27.871049 -27.88241,27.871049 -15.397963,0 -27.8813755,-12.478249 -27.8813755,-27.871049 0,-15.3928 12.4834125,-27.871047 27.8813755,-27.871047 15.398997,0 27.88241,12.478247 27.88241,27.871047 z"
   sodipodi:nodetypes="ssssssssss" /><path
   style="fill:#cdb87c"
   inkscape:connector-curvature="0"
   id="path5"
   d="m 62.125,20.438 -1.938,2.125 c 0,0 2.313,2.375 3.438,7.75 1.125,5.375 3.063,14.75 -4.438,25.25 l 0.625,3.688 5,-1.188 c 0,0 4.813,-6.5 5.5,-18.313 C 70.999,27.937 67.25,20.938 62.125,20.438 z" /><path
   style="fill:#cdb87c"
   inkscape:connector-curvature="0"
   id="path7"
   d="m 9.75,20.438 c 0,0 -9.375,11.688 -4.75,25.063 4.625,13.375 5.5,13.688 7.875,14 C 15.25,59.813 15.75,56.875 15,54.875 14.25,52.875 5.625,44.063 11.25,31 16.875,17.937 8.938,17.75 9.75,20.438 z" /><ellipse
   style="fill:#cdb87c;fill-rule:evenodd"
   sodipodi:ry="27.826"
   sodipodi:rx="27.632999"
   sodipodi:cy="38.894001"
   sodipodi:cx="37.242001"
   id="ellipse9"
   ry="27.826"
   rx="27.632999"
   cy="38.894001"
   cx="37.242001"
   clip-rule="evenodd" /><polyline
   style="fill:#ffffff;fill-rule:evenodd"
   id="polyline11"
   points="50.875,50.25 51.917,51.042 53.375,48.708 53.583,47.75    51,50.083  "
   clip-rule="evenodd" /><polygon
   style="fill:#ffffff;fill-rule:evenodd"
   id="polygon13"
   points="24.167,50.125 21.417,47.667 21.042,48.208 22.958,51.125 "
   clip-rule="evenodd" /><path
   style="fill:#ffffff;fill-rule:evenodd"
   inkscape:connector-curvature="0"
   id="path15"
   d="m 15.542,41.542 3.167,2.958 1.5,-4.167 c 0,0 0.917,4.792 2,6.75 0,0 4.083,5.583 0.167,1.833 0,0 -2.666,-3.24 -0.708,0.833 1.958,4.073 9.099,7.415 12.966,8.374 l 0.326,0.834 c 0,0 3.791,0.284 4.958,-0.083 v -0.833 c 0,0 4.625,-0.333 10.708,-5.458 0,0 3.167,-3.625 3.083,-4.667 -0.084,-1.042 -2.25,2 -2.708,2.167 -0.458,0.167 1.084,-2 1.417,-2.75 0,0 2.328,-4.813 2.069,-6.954 C 54.48,40.32 54.47,40.263 54.459,40.208 l 1.5,4.333 3.333,-3.333 -2.583,7.417 -0.375,0.708 1.666,1.334 -1.042,1.75 -0.75,1.125 -0.875,1 -1.333,1.416 -1.125,0.75 -0.917,0.958 -1.291,0.834 -1.167,0.833 -0.875,0.583 -1.5,0.667 -1.25,0.5 -1.125,0.583 -1.792,0.542 -1.208,0.167 -0.333,0.667 -0.375,0.458 -1.363,0.282 -1.762,0.093 h -2.5 l -1.75,-0.292 -0.417,-0.875 -0.667,-0.417 -3,-0.833 L 27.375,60.416 24.75,59 21.542,56.5 18,52.542 16.831,50.384 18.417,49.375 17.25,46.167 16.458,44.375 15.542,41.542 z"
   clip-rule="evenodd" /><path
   style="fill:#ffffff;fill-rule:evenodd"
   inkscape:connector-curvature="0"
   id="path17"
   d="m 52.813,34.375 c 0,0 0.063,0.656 -0.063,2.219 -0.126,1.563 -0.531,3.938 -1.469,6.313 -0.938,2.375 0.063,0.156 0.063,0.156 l 1.063,0.156 c 0,0 1.563,-7.344 1.531,-8.906 l -1.125,0.062 z"
   clip-rule="evenodd" /><path
   style="fill:#ffffff;fill-rule:evenodd"
   inkscape:connector-curvature="0"
   id="path19"
   d="m 21.875,34.375 c 0,0 0.219,3.188 0.531,5.531 0.312,2.343 0.781,2.188 0.906,3.125 l -0.906,0.375 c 0,0 -1.844,-6.969 -1.531,-9.125 l 1,0.094 z"
   clip-rule="evenodd" /><path
   style="fill:#ffffff;fill-rule:evenodd"
   inkscape:connector-curvature="0"
   id="path21"
   d="m 22.375,42.708 h 29.833 c 0,0 -1.042,4.083 -3.5,7.375 -2.458,3.292 -8.577,7.974 -11.375,8.292 0,0 -12.666,-5.125 -14.958,-15.667 z"
   clip-rule="evenodd" /><polygon
   style="fill:#ffffff;fill-rule:evenodd"
   id="polygon23"
   points="53.43,24 45.5,24 45.313,20.5 44.75,19.375 44.438,17.75 45.438,16.75 45.438,14.813 40.313,14.813 40.313,16.75 41.031,17.469 41.031,18 39.25,18 39,16.25 39.938,14.938 39.938,13.313 34.875,13.313 34.875,15.063 35.813,16 35.313,17.875 33.625,17.875 34.438,16.813 34.438,14.813 29.313,14.813 29.313,16.813 30.281,17.781 29.938,19.5 29.375,20.125 29.375,24 21.125,24 21.286,34.539 53.43,34.539 "
   clip-rule="evenodd" /><path
   style="fill:#1a2e5a;fill-rule:evenodd"
   inkscape:connector-curvature="0"
   id="path25"
   d="m 1.456,38.603 c 0,19.788 16.105,35.888 35.902,35.888 19.797,0 35.902,-16.1 35.902,-35.888 C 73.26,18.814 57.155,2.715 37.358,2.715 17.561,2.715 1.456,18.814 1.456,38.603 m 0.628,0 c 0,-19.442 15.824,-35.26 35.274,-35.26 19.45,0 35.274,15.818 35.274,35.26 0,19.442 -15.824,35.26 -35.274,35.26 -19.45,0 -35.274,-15.818 -35.274,-35.26 z"
   clip-rule="evenodd" /><path
   style="fill:#1a2e5a"
   inkscape:connector-curvature="0"
   id="path27"
   d="m 40.671,24.044 h -0.913 l -0.008,0.11 h 6.099 l -0.305,-4.068 c 0,0 -0.442,-0.442 -0.586,-0.586 -0.034,-0.23 -0.186,-1.281 -0.235,-1.616 0.219,-0.217 0.834,-0.823 0.834,-0.823 v -2.383 h -5.434 v -1.604 h -5.53 v 1.604 h -5.445 v 2.383 c 0,0 0.615,0.606 0.834,0.823 -0.048,0.335 -0.201,1.386 -0.235,1.616 -0.143,0.144 -0.586,0.586 -0.586,0.586 l -0.289,4.068 h 6.099 l -0.009,-0.11 h -0.939 c 0,0 -0.003,-0.04 -0.008,-0.099 h -4.609 l 0.009,-0.118 c 0,0 0.015,-0.209 0.037,-0.523 h 1.533 v 0.438 h 0.114 v -0.438 h 1.617 v 0.438 h 0.114 v -0.438 h 1.459 c 0.028,0.369 0.047,0.625 0.047,0.625 h 0.896 v 0.18 h 4.252 v -0.18 h 0.282 l -0.004,0.063 h 0.472 l 0.004,-0.063 h 0.048 l 0.007,-0.102 c 0,0 0.015,-0.209 0.038,-0.523 h 1.533 v 0.438 h 0.114 v -0.438 h 1.616 v 0.438 h 0.114 v -0.438 h 1.546 l 0.045,0.641 h -4.62 c -0.005,0.059 -0.008,0.099 -0.008,0.099 m 4.516,-1.678 h -1.479 v -0.709 h 1.428 l 0.051,0.709 z m -3.209,-5.652 h 1.617 v 0.71 h -1.617 v -0.71 z m 0.751,-0.113 h -1.616 v -0.71 h 1.616 v 0.71 z m 1.731,0 h -1.616 v -0.71 h 1.616 v 0.71 z m 0.183,3.295 h -1.8 v -0.711 h 1.544 c 0.039,0.28 0.07,0.496 0.07,0.509 l -10e-4,0.001 c 0,0 0.083,0.089 0.187,0.201 z m -2.665,0.113 h 1.617 v 0.711 h -1.617 v -0.711 z m 1.616,-0.937 h -1.616 v -0.711 h 1.616 v 0.711 z m 0.114,0 v -0.71 h 0.56 c 0.034,0.233 0.07,0.484 0.102,0.71 h -0.662 z m 0.456,-1.423 c 10e-4,0.007 0.039,0.268 0.087,0.599 h -1.408 v -0.71 h 1.467 c -0.081,0.072 -0.138,0.117 -0.146,0.111 z m -1.435,-0.111 v 0.71 h -1.375 c 0.014,-0.079 0.027,-0.145 0.042,-0.219 0.019,-0.1 0.037,-0.204 0.055,-0.292 0,0 -0.016,-0.016 -0.023,-0.022 -0.026,-0.026 -0.086,-0.086 -0.177,-0.177 h 1.478 z m -1.396,0.824 h 0.531 v 0.71 H 41.21 c 0.037,-0.221 0.079,-0.467 0.123,-0.71 z m 1.396,0.823 v 0.711 h -1.761 c 0.061,-0.06 0.108,-0.105 0.112,-0.106 0.015,-0.045 0.057,-0.288 0.11,-0.605 h 1.539 z m -0.865,0.824 v 0.711 h -1.336 l 0.045,-0.434 c 0,0 0.143,-0.143 0.278,-0.277 h 1.013 z m -0.866,0.824 v 0.711 h -0.536 c 0.02,-0.263 0.04,-0.507 0.057,-0.711 h 0.479 z m 0.866,0.824 v 0.709 H 40.4 c 0.017,-0.235 0.035,-0.476 0.054,-0.709 h 1.41 z m 0.865,-0.113 h -1.616 v -0.71 h 1.616 v 0.71 z m -0.751,0.113 h 1.617 v 0.708 h -1.617 v -0.708 z m 2.482,-0.113 h -1.616 v -0.71 h 1.616 v 0.71 z m 0.668,0 h -0.554 v -0.711 h 0.503 l 0.051,0.711 z m -0.381,-1.535 c 0.14,0.154 0.281,0.313 0.296,0.347 l 0.026,0.364 h -1.361 v -0.711 h 1.039 z m 0.259,-3.133 c 0,0 -0.324,0.32 -0.571,0.549 h -0.727 v -0.711 h 1.302 l -0.004,0.162 z m 0.006,-0.275 H 44.574 V 15.89 h 0.453 l -0.015,0.711 z m -0.851,-1.405 h 0.878 v 0.11 l -0.01,0.471 h -0.868 v -0.581 z m -1.828,0 h 0.912 v 0.581 h -0.912 v -0.581 z m -1.788,0 h 0.873 v 0.581 h -0.873 v -0.581 z m 0,0.694 h 0.453 v 0.71 h -0.453 v -0.71 z m 0,0.824 h 1.319 v 0.711 h -0.727 c -0.254,-0.256 -0.573,-0.581 -0.592,-0.627 v -0.084 z m 0.144,1.001 H 39.498 C 39.442,17.33 39.33,16.56 39.289,16.28 c 0.165,-0.163 0.555,-0.548 0.737,-0.729 v 1.509 c 0,0.001 0.393,0.389 0.663,0.655 z m -4.123,-2.592 h 1.59 v 0.654 h -1.59 v -0.654 z m 0.752,-0.117 h -1.617 v -0.652 h 1.617 v 0.652 z m 1.73,0 h -1.617 v -0.652 h 1.617 v 0.652 z m -0.317,1.039 c 0,0.007 0.036,0.245 0.08,0.556 h -1.38 V 15.89 h 1.493 c -0.104,0.095 -0.184,0.162 -0.193,0.155 z m 0.199,1.38 h -0.661 v -0.711 h 0.559 c 0.033,0.23 0.07,0.481 0.102,0.711 z M 37.318,15.89 v 0.711 h -1.391 c 0.031,-0.167 0.062,-0.326 0.091,-0.468 0,0 -0.107,-0.105 -0.244,-0.243 h 1.544 z m -0.866,0.824 v 0.711 h -0.669 c 0.038,-0.225 0.08,-0.467 0.124,-0.711 h 0.545 z m 0.866,0.824 v 0.177 h -1.584 c 0.009,-0.057 0.019,-0.114 0.03,-0.177 h 1.554 z m 0.837,-0.113 h -1.59 v -0.71 h 1.59 v 0.71 z m -0.724,0.113 h 1.515 c 0.01,0.063 0.017,0.12 0.025,0.177 h -1.54 v -0.177 z m 0.838,-1.761 v -0.654 h 1.306 l -0.003,0.149 c 0,0 -0.285,0.281 -0.524,0.505 h -0.779 z m 0.892,-0.771 v -0.652 h 0.43 l -0.013,0.652 h -0.417 z m -0.434,-1.414 h 0.878 v 0.11 l -0.011,0.536 h -0.867 v -0.646 z m -1.827,0 h 0.912 v 0.646 H 36.9 v -0.646 z m -1.789,0 h 0.873 v 0.646 h -0.873 v -0.646 z m 0,0.762 h 0.476 v 0.652 h -0.476 v -0.652 z m 0,0.769 h 1.341 v 0.654 H 35.66 C 35.414,15.53 35.13,15.238 35.111,15.193 v -0.07 z m -0.432,1.938 v -1.519 c 0.176,0.173 0.579,0.571 0.748,0.738 -0.041,0.28 -0.153,1.05 -0.209,1.435 h -1.202 c 0.27,-0.266 0.663,-0.654 0.663,-0.654 z m -3.58,-0.347 h 1.616 v 0.71 h -1.616 v -0.71 z m 0.751,-0.113 h -1.617 v -0.71 h 1.617 v 0.71 z m 1.731,0 h -1.617 v -0.71 h 1.617 v 0.71 z m 0.183,3.295 h -1.799 v -0.711 h 1.543 c 0.04,0.28 0.07,0.496 0.07,0.509 v 0.001 c 0,0 0.083,0.089 0.186,0.201 z m 0.105,0.113 c 0.14,0.154 0.28,0.313 0.296,0.347 l 0.026,0.364 H 32.83 v -0.711 h 1.039 z M 32.716,19.072 H 31.1 v -0.711 h 1.616 v 0.711 z m 0.114,0 v -0.71 h 0.559 c 0.034,0.233 0.071,0.484 0.103,0.71 H 32.83 z m 0.465,-1.357 c 0.01,0.065 0.026,0.175 0.046,0.314 0.01,0.067 0.021,0.14 0.032,0.219 h -1.408 v -0.71 h 1.467 c -0.081,0.072 -0.138,0.117 -0.146,0.111 0,0.002 0.004,0.028 0.009,0.066 z M 31.85,17.538 v 0.71 h -1.375 c 0.033,-0.181 0.066,-0.357 0.098,-0.511 0,0 -0.086,-0.084 -0.2,-0.199 h 1.477 z m -1.396,0.824 h 0.531 v 0.71 h -0.654 c 0.038,-0.221 0.08,-0.467 0.123,-0.71 z m 1.396,0.823 v 0.711 h -1.761 c 0.061,-0.06 0.109,-0.105 0.112,-0.106 0.015,-0.045 0.057,-0.288 0.111,-0.605 h 1.538 z m -0.751,0.824 h 1.616 v 0.711 h -1.616 v -0.711 z m -0.865,0.824 h 1.617 v 0.71 h -1.617 v -0.71 z m 0.865,0.824 h 1.616 v 0.708 h -1.616 v -0.708 z m 2.482,-0.113 h -1.617 v -0.71 h 1.617 v 0.71 z m -0.751,0.113 h 1.428 l 0.05,0.709 H 32.83 v -0.709 z m 0.865,-0.113 v -0.711 h 0.504 l 0.05,0.711 H 33.695 z M 33.557,17.425 H 32.83 v -0.711 h 1.301 l -0.003,0.162 c 0,0 -0.325,0.32 -0.571,0.549 z m 0.138,-0.824 V 15.89 h 0.454 l -0.015,0.711 h -0.439 z m -0.413,-1.405 h 0.879 v 0.11 l -0.01,0.471 h -0.869 v -0.581 z m -1.827,0 h 0.912 v 0.581 h -0.912 v -0.581 z m -1.788,0 h 0.873 v 0.581 h -0.873 v -0.581 z m 0,0.694 h 0.453 v 0.71 h -0.453 v -0.71 z m 0,0.908 v -0.084 h 1.318 v 0.711 h -0.727 c -0.254,-0.256 -0.572,-0.581 -0.591,-0.627 z m 0.027,3.488 c 0,0 0.144,-0.143 0.279,-0.277 h 1.012 V 20.72 H 29.65 c 0.021,-0.251 0.038,-0.419 0.044,-0.434 z m -0.054,0.547 h 0.48 v 0.711 h -0.536 c 0.02,-0.263 0.039,-0.507 0.056,-0.711 z m -0.065,0.824 h 1.41 v 0.709 h -1.464 c 0.018,-0.235 0.036,-0.476 0.054,-0.709 z m 0.545,1.534 h -0.659 c 0.015,-0.208 0.033,-0.45 0.052,-0.709 h 0.607 v 0.709 z m 1.73,0 h -1.617 v -0.709 h 1.617 v 0.709 z m 1.731,0 h -1.617 v -0.709 h 1.617 v 0.709 z m 0.114,0 v -0.709 h 0.621 l 0.051,0.709 h -0.672 z m 2.455,0.644 h -0.682 v -0.717 h 0.682 v 0.717 z m 0,-0.875 h -0.682 v -0.619 h 0.682 v 0.619 z m 0,-0.775 h -0.682 v -0.618 h 0.682 v 0.618 z m 0.005,-0.775 h -0.687 c 0,-0.044 0,-0.074 0,-0.074 0,-0.234 0.048,-0.456 0.127,-0.663 l 0.633,0.369 c -0.043,0.116 -0.069,0.239 -0.073,0.368 z m 0.138,-0.512 -0.636,-0.37 c 0.135,-0.284 0.337,-0.527 0.588,-0.711 l 0.388,0.678 c -0.141,0.108 -0.257,0.245 -0.34,0.403 z m 0.987,-0.646 c -0.186,0.013 -0.361,0.068 -0.515,0.156 l -0.389,-0.679 c 0.266,-0.163 0.573,-0.26 0.904,-0.274 v 0.797 z m 0.157,0 v -0.797 c 0.332,0.014 0.641,0.113 0.908,0.277 l -0.39,0.678 c -0.156,-0.09 -0.331,-0.145 -0.518,-0.158 z m 0.649,0.245 0.39,-0.677 c 0.246,0.182 0.446,0.423 0.581,0.702 l -0.635,0.373 c -0.083,-0.156 -0.197,-0.291 -0.336,-0.398 z m 1.162,3.338 h -0.683 v -0.717 h 0.683 v 0.717 z m 0,-0.875 h -0.683 v -0.619 h 0.683 v 0.619 z m 0,-0.775 h -0.683 v -0.618 h 0.683 v 0.618 z m 0,-0.775 h -0.687 c -0.004,-0.13 -0.03,-0.254 -0.073,-0.371 l 0.632,-0.372 c 0.08,0.209 0.128,0.433 0.128,0.669 0,0 0,0.03 0,0.074 z m 0.84,2.425 h -0.604 v -2.499 c 0,-1.171 -0.953,-2.125 -2.126,-2.125 -1.172,0 -2.126,0.954 -2.126,2.125 v 2.499 h -0.603 c -0.019,-0.27 -0.258,-3.61 -0.258,-3.61 0,0 -0.604,-0.604 -0.61,-0.61 10e-4,0 0.002,-0.006 0.002,-0.016 0,-0.123 -0.112,-0.906 -0.163,-1.256 h 0.696 v 0.707 h 0.852 v -0.707 h 0.906 v 0.707 h 0.851 v -0.707 h 0.906 v 0.707 h 0.851 v -0.707 h 0.906 v 0.707 h 0.852 v -0.707 h 0.696 c -0.041,0.279 -0.198,1.333 -0.2,1.349 -0.023,-0.016 -0.529,0.491 -0.529,0.491 l -0.042,0.042 c 0,0 -0.238,3.34 -0.257,3.61 z m 0.91,-0.644 h -0.659 c 0.015,-0.208 0.033,-0.45 0.052,-0.709 h 0.607 v 0.709 z m 1.731,0 h -1.616 v -0.709 h 1.616 v 0.709 z m 1.731,0 h -1.616 v -0.709 h 1.616 v 0.709 z m 0.114,0 v -0.709 h 0.621 l 0.05,0.709 h -0.671 z" /><path
   style="fill:#221f1f"
   inkscape:connector-curvature="0"
   id="path29"
   d="m 34.483,23.992 -0.005,-0.063 h -0.059 l 0.002,0.016 h -0.406 c 0.005,0.059 0.008,0.099 0.008,0.099 h 0.939 l -0.003,-0.052 h -0.476" /><polyline
   style="fill:#221f1f"
   id="polyline31"
   points="34.959,23.992 40.234,23.992 40.238,23.929 34.954,23.929 34.959,23.992  " /><polyline
   style="fill:#221f1f"
   id="polyline33"
   points="34.478,23.929 34.483,23.992 34.959,23.992 34.954,23.929 34.478,23.929  " /><polyline
   style="fill:#221f1f"
   id="polyline35"
   points="34.959,23.992 34.962,24.044 39.758,24.044 39.762,23.992 34.959,23.992  " /><path
   style="fill:#221f1f"
   inkscape:connector-curvature="0"
   id="path37"
   d="m 40.679,23.945 h -0.394 l 0.001,-0.016 h -0.048 l -0.004,0.063 h -0.472 l -0.004,0.052 h 0.913 c 0,0 0.003,-0.04 0.008,-0.099" /><path
   style="fill:#1a2e5a;fill-rule:evenodd"
   inkscape:connector-curvature="0"
   id="path39"
   d="m 37.358,45.688 c -1.292,0 -2.342,1.05 -2.342,2.343 0,1.29 1.05,2.34 2.342,2.34 1.292,0 2.343,-1.05 2.343,-2.34 0,-1.293 -1.051,-2.343 -2.343,-2.343"
   clip-rule="evenodd" /><path
   style="fill:#1a2e5a;fill-rule:evenodd"
   inkscape:connector-curvature="0"
   id="path41"
   d="m 29.233,27.965 c -1.292,0 -2.343,1.05 -2.343,2.342 0,1.29 1.051,2.341 2.343,2.341 1.292,0 2.342,-1.051 2.342,-2.341 0,-1.292 -1.05,-2.342 -2.342,-2.342"
   clip-rule="evenodd" /><path
   style="fill:#1a2e5a;fill-rule:evenodd"
   inkscape:connector-curvature="0"
   id="path43"
   d="m 45.483,27.965 c -1.291,0 -2.342,1.05 -2.342,2.342 0,1.29 1.051,2.341 2.342,2.341 1.292,0 2.343,-1.051 2.343,-2.341 0,-1.292 -1.051,-2.342 -2.343,-2.342"
   clip-rule="evenodd" /><path
   style="fill:#1a2e5a"
   inkscape:connector-curvature="0"
   id="path45"
   d="m 40.798,37.31 c 0,-0.192 0,-1.953 0,-2.144 -0.192,0 -1.953,0 -2.145,0 0,0.191 0,1.952 0,2.144 0.192,0 1.953,0 2.145,0" /><path
   style="fill:#1a2e5a"
   inkscape:connector-curvature="0"
   id="path47"
   d="m 40.798,42.04 c 0,-0.192 0,-1.953 0,-2.144 -0.192,0 -1.953,0 -2.145,0 0,0.191 0,1.952 0,2.144 0.192,0 1.953,0 2.145,0" /><path
   style="fill:#1a2e5a"
   inkscape:connector-curvature="0"
   id="path49"
   d="m 43.163,39.675 c 0,-0.192 0,-1.953 0,-2.144 -0.192,0 -1.952,0 -2.144,0 0,0.191 0,1.952 0,2.144 0.192,0 1.952,0 2.144,0" /><path
   style="fill:#1a2e5a"
   inkscape:connector-curvature="0"
   id="path51"
   d="m 45.529,37.31 c 0,-0.192 0,-1.953 0,-2.144 -0.192,0 -1.953,0 -2.145,0 0,0.191 0,1.952 0,2.144 0.192,0 1.953,0 2.145,0" /><path
   style="fill:#1a2e5a"
   inkscape:connector-curvature="0"
   id="path53"
   d="m 45.529,42.04 c 0,-0.192 0,-1.953 0,-2.144 -0.192,0 -1.953,0 -2.145,0 0,0.191 0,1.952 0,2.144 0.192,0 1.953,0 2.145,0" /><path
   style="fill:#1a2e5a"
   inkscape:connector-curvature="0"
   id="path55"
   d="m 47.894,39.675 c 0,-0.192 0,-1.953 0,-2.144 -0.191,0 -1.952,0 -2.144,0 0,0.191 0,1.952 0,2.144 0.192,0 1.953,0 2.144,0" /><path
   style="fill:#1a2e5a"
   inkscape:connector-curvature="0"
   id="path57"
   d="m 50.26,37.31 c 0,-0.192 0,-1.953 0,-2.144 -0.192,0 -1.953,0 -2.144,0 0,0.191 0,1.952 0,2.144 0.191,0 1.952,0 2.144,0" /><path
   style="fill:#1a2e5a"
   inkscape:connector-curvature="0"
   id="path59"
   d="m 50.26,42.04 c 0,-0.192 0,-1.953 0,-2.144 -0.192,0 -1.953,0 -2.144,0 0,0.191 0,1.952 0,2.144 0.191,0 1.952,0 2.144,0" /><rect
   style="fill:#1a2e5a"
   id="rect61"
   height="2.1440001"
   width="2.1440001"
   y="35.167"
   x="24.459999" /><rect
   style="fill:#1a2e5a"
   id="rect63"
   height="2.1440001"
   width="2.1440001"
   y="39.896"
   x="24.459999" /><path
   style="fill:#1a2e5a"
   inkscape:connector-curvature="0"
   id="path65"
   d="m 33.701,39.675 c 0,-0.192 0,-1.953 0,-2.144 -0.192,0 -1.953,0 -2.144,0 0,0.191 0,1.952 0,2.144 0.191,0 1.952,0 2.144,0" /><path
   style="fill:#1a2e5a"
   inkscape:connector-curvature="0"
   id="path67"
   d="m 31.335,37.31 c 0,-0.192 0,-1.953 0,-2.144 -0.191,0 -1.953,0 -2.144,0 0,0.191 0,1.952 0,2.144 0.191,0 1.953,0 2.144,0" /><path
   style="fill:#1a2e5a"
   inkscape:connector-curvature="0"
   id="path69"
   d="m 31.335,42.04 c 0,-0.192 0,-1.953 0,-2.144 -0.191,0 -1.953,0 -2.144,0 0,0.191 0,1.952 0,2.144 0.191,0 1.953,0 2.144,0" /><path
   style="fill:#1a2e5a"
   inkscape:connector-curvature="0"
   id="path71"
   d="m 36.066,37.31 c 0,-0.192 0,-1.953 0,-2.144 -0.191,0 -1.952,0 -2.144,0 0,0.191 0,1.952 0,2.144 0.192,0 1.953,0 2.144,0" /><path
   style="fill:#1a2e5a"
   inkscape:connector-curvature="0"
   id="path73"
   d="m 36.066,42.04 c 0,-0.192 0,-1.953 0,-2.144 -0.191,0 -1.952,0 -2.144,0 0,0.191 0,1.952 0,2.144 0.192,0 1.953,0 2.144,0" /><path
   style="fill:#1a2e5a"
   inkscape:connector-curvature="0"
   id="path75"
   d="m 38.432,39.675 c 0,-0.192 0,-1.953 0,-2.144 -0.192,0 -1.953,0 -2.144,0 0,0.191 0,1.952 0,2.144 0.191,0 1.952,0 2.144,0" /><path
   style="fill:#1a2e5a"
   inkscape:connector-curvature="0"
   id="path77"
   d="m 28.97,39.675 c 0,-0.192 0,-1.953 0,-2.144 -0.192,0 -1.953,0 -2.145,0 0,0.191 0,1.952 0,2.144 0.192,0 1.953,0 2.145,0" /><path
   style="fill:#1a2e5a;fill-rule:evenodd"
   inkscape:connector-curvature="0"
   id="path79"
   d="m 22.294,38.365 c 0,0 0.08,0.554 0.079,0.55 l 0.096,0.494 c 0,0 0.029,0.164 0.047,0.266 h 1.719 v -2.144 h -2.039 c 0.014,0.137 0.035,0.361 0.035,0.359 l 0.063,0.475"
   clip-rule="evenodd" /><path
   style="fill:#1a2e5a;fill-rule:evenodd"
   inkscape:connector-curvature="0"
   id="path81"
   d="m 52.485,37.893 c 0,0 0.022,-0.225 0.035,-0.362 -0.207,0 -1.85,0 -2.039,0 0,0.191 0,1.952 0,2.144 0.187,0 1.561,0 1.719,0 0.018,-0.102 0.048,-0.266 0.048,-0.266 0,0 0.094,-0.494 0.094,-0.489 l 0.079,-0.554 c 0,0 0.064,-0.475 0.064,-0.473"
   clip-rule="evenodd" /><path
   style="fill:#1a2e5a;fill-rule:evenodd"
   inkscape:connector-curvature="0"
   id="path83"
   d="M 52.802,24.722 H 21.756 v 9.879 c 0,17.053 15.392,22.96 15.547,23.018 l 0.055,0.021 0.055,-0.021 C 37.569,57.561 52.96,51.654 52.96,34.601 v -9.879 h -0.158 m -0.159,0.318 c 0,0.305 0,9.561 0,9.561 0,16.534 -14.628,22.443 -15.285,22.699 -0.657,-0.256 -15.285,-6.165 -15.285,-22.699 0,-9.406 0,-7.326 0,-9.561 0.312,0 30.258,0 30.57,0 z"
   clip-rule="evenodd" /><path
   style="fill:#221f1f"
   inkscape:connector-curvature="0"
   id="path85"
   d="m 5.562,40.101 c 0,0.679 0.552,1.231 1.231,1.231 0.679,0 1.232,-0.552 1.232,-1.231 0,-0.679 -0.553,-1.231 -1.232,-1.231 -0.679,0 -1.231,0.552 -1.231,1.231 m 0.176,0 c 0,-0.583 0.473,-1.056 1.055,-1.056 0.583,0 1.056,0.473 1.056,1.056 0,0.582 -0.473,1.056 -1.056,1.056 -0.582,0 -1.055,-0.474 -1.055,-1.056 z" /><path
   style="fill:none"
   inkscape:connector-curvature="0"
   id="path87"
   d="m 41.142,63.283 c 0.006,-1.003 0.303,-3.326 0.448,-4.402 -0.239,0.094 -0.561,0.18 -0.941,0.252 -0.828,0.159 -1.987,0.269 -3.291,0.269 -1.304,0 -2.463,-0.11 -3.291,-0.269 -0.379,-0.072 -0.7,-0.156 -0.939,-0.252 0.147,1.077 0.44,3.399 0.446,4.402 0.097,0.067 0.197,0.106 0.343,0.144 0.298,0.079 0.704,0.129 1.136,0.163 0.886,0.072 1.88,0.072 2.305,0.072 0.426,0 1.419,0 2.305,-0.072 0.432,-0.034 0.838,-0.084 1.136,-0.163 0.146,-0.038 0.246,-0.077 0.305,-0.113 l 0.038,-0.031 m 0.072,0.187 c -0.083,0.051 -0.214,0.104 -0.366,0.142 -0.307,0.081 -0.725,0.134 -1.169,0.17 -0.893,0.07 -1.893,0.07 -2.321,0.07 -0.428,0 -1.428,0 -2.321,-0.07 -0.444,-0.036 -0.862,-0.089 -1.168,-0.17 -0.153,-0.039 -0.284,-0.091 -0.367,-0.142 l -0.12,-0.093 c -0.006,-1.091 -0.298,-3.398 -0.444,-4.471 l -0.045,-0.324 0.306,0.12 c 0.222,0.089 0.531,0.172 0.904,0.244 0.819,0.156 1.966,0.264 3.255,0.264 1.29,0 2.436,-0.108 3.255,-0.264 0.374,-0.072 0.683,-0.155 0.906,-0.244 l 0.305,-0.12 -0.044,0.324 c -0.144,1.07 -0.44,3.381 -0.445,4.378 l -0.121,0.186 z" /><path
   style="fill:none"
   inkscape:connector-curvature="0"
   id="path89"
   d="M 33.276,62.462 33.08,62.421 c -0.129,-1.593 -0.484,-4.04 -0.484,-4.04 l 0.454,-0.01 c 0.032,-0.019 0.092,0.02 0.193,0.063 0.2,0.086 0.509,0.174 0.91,0.251 0.189,0.036 0.395,0.069 0.618,0.099 l -0.005,0.2 -0.647,-0.11 c -0.407,-0.079 -0.734,-0.17 -0.952,-0.265 l -0.351,-0.041 c 0.085,0.601 0.323,2.339 0.438,3.637 l 0.022,0.257" /><path
   style="fill:none"
   inkscape:connector-curvature="0"
   id="path91"
   d="m 16.923,50.553 c 2.083,4.348 8.395,10.103 16.336,11.71 l 0.017,0.199 -0.253,-0.053 C 25.117,60.736 18.843,55.002 16.75,50.636 l -0.079,-0.165 0.16,-0.087 c 1.617,-0.881 3.167,-1.964 3.777,-2.403 l 0.21,-0.15 0.083,0.244 c 0.579,1.684 4.19,7.77 13.732,10.049 l 0.151,0.036 -0.018,0.824 -0.19,-0.033 0.013,-0.64 c -9.61,-2.297 -13.27,-8.43 -13.869,-10.174 -0.613,0.441 -2.172,1.529 -3.797,2.416" /><path
   style="fill:none"
   inkscape:connector-curvature="0"
   id="path93"
   d="m 41.619,62.658 -0.456,0.089 c 0.071,-1.139 0.304,-2.953 0.427,-3.866 -0.239,0.094 -0.561,0.18 -0.941,0.252 -0.274,0.053 -0.584,0.099 -0.924,0.141 l -0.008,-0.46 c 0.31,-0.038 0.594,-0.081 0.846,-0.129 0.402,-0.077 0.71,-0.165 0.91,-0.251 0.102,-0.043 0.165,-0.092 0.194,-0.118 0.045,-0.309 0.423,-0.3 0.454,0.01 0.005,0.048 0,0.093 -0.012,0.132 -0.065,0.455 -0.392,2.786 -0.49,4.2" /><path
   style="fill:#1a2e5a;fill-rule:evenodd"
   inkscape:connector-curvature="0"
   id="path95"
   d="m 21.138,47.311 c -0.137,0 -0.336,0.048 -0.507,0.273 l 0.451,0.342 c 0.006,-0.007 0.038,-0.048 0.057,-0.048 0.216,-0.002 0.718,0.655 1.05,1.09 0.554,0.724 1.076,1.407 1.64,1.46 l 0.562,-0.192 -0.376,-0.422 -0.132,0.051 c -0.318,-0.031 -0.854,-0.729 -1.245,-1.241 -0.539,-0.705 -1.004,-1.313 -1.5,-1.313"
   clip-rule="evenodd" /><path
   style="fill:#1a2e5a;fill-rule:evenodd"
   inkscape:connector-curvature="0"
   id="path97"
   d="m 35.148,60.254 c 0.002,0.001 10e-4,0.008 0,0.018 l -0.255,2.077 c -0.011,0.088 0.006,0.146 0.05,0.177 0.044,0.029 0.13,0.055 0.258,0.075 l -0.006,0.048 -0.972,-0.118 0.006,-0.053 c 0.14,0.01 0.233,10e-4 0.28,-0.022 0.046,-0.026 0.075,-0.092 0.088,-0.194 l 0.196,-1.598 c 0.007,-0.055 0.005,-0.098 -0.005,-0.127 -0.01,-0.031 -0.038,-0.05 -0.084,-0.055 -0.03,-0.004 -0.07,0 -0.121,0.012 -0.049,0.01 -0.095,0.022 -0.139,0.036 l 0.006,-0.05 0.672,-0.244 0.021,0.002 c 0.004,0.007 0.006,0.012 0.005,0.016"
   clip-rule="evenodd" /><path
   style="fill:#1a2e5a;fill-rule:evenodd"
   inkscape:connector-curvature="0"
   id="path99"
   d="m 37.215,60.389 -0.002,0.057 -0.834,2.301 -0.23,-0.008 0.777,-2.099 -0.757,-0.026 c -0.112,-0.003 -0.194,0.012 -0.245,0.046 -0.049,0.036 -0.114,0.112 -0.194,0.227 l -0.059,-0.029 c 0.081,-0.182 0.131,-0.296 0.15,-0.338 0.02,-0.043 0.046,-0.102 0.078,-0.177 l 1.316,0.046"
   clip-rule="evenodd" /><path
   style="fill:#1a2e5a;fill-rule:evenodd"
   inkscape:connector-curvature="0"
   id="path101"
   d="m 38.567,62.533 c 0.066,-0.077 0.097,-0.17 0.093,-0.282 -0.005,-0.127 -0.044,-0.226 -0.12,-0.302 -0.075,-0.075 -0.227,-0.189 -0.457,-0.34 -0.098,0.066 -0.167,0.15 -0.208,0.251 -0.042,0.101 -0.062,0.197 -0.058,0.29 0.005,0.16 0.05,0.283 0.135,0.374 0.085,0.091 0.191,0.134 0.317,0.131 0.133,-0.006 0.232,-0.045 0.298,-0.122 m -0.102,-1.406 c 0.068,-0.093 0.1,-0.201 0.096,-0.328 -0.004,-0.11 -0.042,-0.2 -0.112,-0.276 -0.07,-0.074 -0.174,-0.11 -0.312,-0.105 -0.106,0.004 -0.193,0.04 -0.26,0.11 -0.068,0.071 -0.1,0.153 -0.096,0.249 0.004,0.108 0.048,0.209 0.132,0.299 0.085,0.091 0.196,0.173 0.332,0.252 0.107,-0.081 0.179,-0.148 0.22,-0.201 z m -0.803,0.127 c -0.089,-0.106 -0.137,-0.228 -0.141,-0.362 -0.006,-0.153 0.053,-0.285 0.175,-0.395 0.124,-0.111 0.287,-0.17 0.489,-0.177 0.187,-0.008 0.337,0.038 0.45,0.134 0.114,0.098 0.173,0.213 0.178,0.345 0.005,0.136 -0.048,0.259 -0.156,0.371 -0.062,0.063 -0.165,0.137 -0.307,0.223 0.202,0.139 0.347,0.261 0.435,0.367 0.09,0.105 0.137,0.23 0.142,0.378 0.006,0.166 -0.052,0.309 -0.175,0.426 -0.121,0.118 -0.286,0.181 -0.497,0.188 -0.189,0.007 -0.353,-0.039 -0.491,-0.14 -0.139,-0.1 -0.211,-0.236 -0.217,-0.407 -0.005,-0.148 0.038,-0.278 0.128,-0.393 0.058,-0.076 0.162,-0.167 0.31,-0.275 -0.157,-0.116 -0.265,-0.211 -0.323,-0.283 z"
   clip-rule="evenodd" /><path
   style="fill:#1a2e5a;fill-rule:evenodd"
   inkscape:connector-curvature="0"
   id="path103"
   d="m 40.559,60.142 0.007,0.058 -0.464,2.403 -0.228,0.029 0.439,-2.195 -0.751,0.093 c -0.112,0.014 -0.191,0.041 -0.235,0.084 -0.044,0.043 -0.096,0.127 -0.156,0.254 l -0.064,-0.021 c 0.052,-0.192 0.084,-0.31 0.096,-0.357 0.013,-0.044 0.029,-0.108 0.049,-0.188 l 1.307,-0.16"
   clip-rule="evenodd" /><path
   style="fill:#1a2e5a"
   inkscape:connector-curvature="0"
   id="path105"
   d="m 69.396,40.101 c 0,-0.341 -0.14,-0.65 -0.365,-0.873 1.278,-1.298 1.158,-2.58 1.045,-3.731 l -0.062,-0.723 -0.13,0.108 c -0.232,0.197 -0.438,0.379 -0.627,0.558 0.706,-1.209 0.483,-2.299 0.28,-3.289 L 69.4,31.439 69.281,31.56 c -0.182,0.19 -0.336,0.363 -0.488,0.536 0.526,-1.24 0.202,-2.278 -0.098,-3.221 l -0.211,-0.693 -0.105,0.132 c -0.16,0.208 -0.297,0.397 -0.43,0.584 0.393,-1.288 -0.038,-2.286 -0.434,-3.193 l -0.282,-0.667 -0.091,0.142 c -0.14,0.228 -0.258,0.433 -0.372,0.636 0.261,-1.326 -0.269,-2.276 -0.758,-3.139 l -0.352,-0.636 -0.074,0.152 c -0.273,0.566 -0.477,1.044 -0.611,1.49 -0.146,-1.329 -0.839,-2.118 -2.352,-2.816 l -0.124,-0.056 v 0.137 c 0,1.626 0.299,2.758 1.735,3.771 -0.57,-0.317 -1.257,-0.495 -2.192,-0.665 l -0.173,-0.031 0.078,0.157 0.055,0.11 c 0.404,0.818 0.906,1.826 1.828,2.5 -0.136,-0.043 -0.257,-0.086 -0.406,-0.129 l -0.167,-0.049 0.06,0.164 0.043,0.115 c 0.316,0.857 0.711,1.911 1.557,2.679 -0.131,-0.057 -0.247,-0.113 -0.391,-0.171 l -0.162,-0.067 0.044,0.17 0.03,0.118 c 0.225,0.886 0.506,1.975 1.269,2.827 -0.124,-0.071 -0.235,-0.138 -0.371,-0.211 l -0.153,-0.084 0.024,0.174 0.018,0.119 c 0.128,0.883 0.289,1.966 0.919,2.88 -0.088,-0.062 -0.161,-0.119 -0.255,-0.183 l -0.144,-0.098 0.006,0.175 0.005,0.123 c 0.049,1.226 0.127,2.834 1.456,3.986 -0.172,0.212 -0.28,0.479 -0.28,0.773 0,0.237 0.07,0.457 0.187,0.644 -1.468,1.007 -1.713,2.61 -1.891,3.833 l -0.043,0.295 0.154,-0.083 c 0.136,-0.073 0.246,-0.141 0.369,-0.21 -0.76,0.851 -1.042,1.94 -1.267,2.824 l -0.073,0.289 0.161,-0.066 c 0.143,-0.058 0.261,-0.115 0.391,-0.171 -0.847,0.767 -1.241,1.822 -1.558,2.679 l -0.103,0.278 0.168,-0.048 c 0.149,-0.043 0.271,-0.088 0.407,-0.131 -0.922,0.676 -1.426,1.684 -1.83,2.502 l -0.131,0.267 0.172,-0.031 c 0.152,-0.028 0.278,-0.059 0.418,-0.086 -0.989,0.573 -1.594,1.524 -2.082,2.296 l -0.158,0.251 0.174,-0.014 c 0.942,-0.07 1.641,-0.175 2.234,-0.422 -1.522,0.856 -1.934,1.949 -2.104,3.561 l -0.014,0.137 0.131,-0.044 c 1.534,-0.524 2.312,-1.207 2.614,-2.449 0.089,0.43 0.228,0.894 0.425,1.439 l 0.057,0.16 0.418,-0.597 c 0.592,-0.831 1.243,-1.746 1.075,-3.158 0.102,0.245 0.22,0.505 0.355,0.786 l 0.074,0.153 0.352,-0.635 c 0.489,-0.864 1.02,-1.814 0.759,-3.141 0.114,0.202 0.232,0.408 0.372,0.637 l 0.09,0.144 0.284,-0.669 c 0.396,-0.908 0.827,-1.905 0.432,-3.194 0.134,0.187 0.27,0.376 0.431,0.585 l 0.104,0.134 0.213,-0.697 c 0.304,-0.963 0.639,-2.023 0.065,-3.299 0.159,0.184 0.327,0.369 0.521,0.571 l 0.117,0.123 0.139,-0.714 c 0.228,-1.12 0.479,-2.367 -0.613,-3.771 0.283,-0.226 0.468,-0.569 0.468,-0.958 m 0.473,-4.962 c 0.014,0.166 0.032,0.375 0.032,0.375 0.034,0.34 0.067,0.684 0.067,1.031 0,0.836 -0.22,1.689 -1.087,2.56 -0.187,-0.135 -0.412,-0.216 -0.656,-0.229 0.019,-0.517 -0.028,-0.782 -0.109,-1.125 0.006,-0.049 0.01,-0.094 0.017,-0.146 l 0.044,-0.353 c 0.248,-0.758 0.808,-1.351 1.692,-2.113 z m -1.863,2.076 c -0.001,0.004 -0.004,0.028 -0.007,0.054 -0.127,-0.282 -0.299,-0.528 -0.495,-0.763 0.146,0.079 0.284,0.163 0.452,0.231 l 0.12,0.049 v -0.027 l 0.012,0.037 0.101,-0.09 c 0.027,-0.024 0.049,-0.048 0.075,-0.072 -0.104,0.185 -0.191,0.375 -0.258,0.581 z m 1.287,-5.397 c 0.032,0.163 0.072,0.368 0.072,0.368 0.099,0.486 0.2,0.977 0.2,1.486 0,0.865 -0.309,1.782 -1.395,2.798 -0.036,-0.116 -0.07,-0.224 -0.099,-0.325 -0.022,-0.839 -0.101,-1.132 -0.248,-1.549 0.001,-0.049 0.001,-0.095 0.002,-0.148 l 0.006,-0.354 C 68,33.313 68.495,32.666 69.293,31.818 z m -1.569,1.79 0.017,0.038 0.088,-0.097 c -0.069,0.171 -0.132,0.343 -0.172,0.527 0,0.004 -10e-4,0.028 -0.002,0.054 -0.164,-0.283 -0.375,-0.521 -0.613,-0.746 0.179,0.078 0.354,0.158 0.56,0.217 l 0.126,0.037 -0.004,-0.03 z m 0.694,-5.039 c 0.048,0.159 0.11,0.359 0.11,0.359 0.185,0.587 0.374,1.182 0.374,1.828 0,0.761 -0.277,1.593 -1.113,2.559 -0.051,-0.117 -0.094,-0.22 -0.135,-0.32 -0.108,-0.828 -0.219,-1.111 -0.408,-1.51 -0.004,-0.047 -0.009,-0.095 -0.013,-0.147 l -0.031,-0.35 c 0.086,-0.796 0.51,-1.491 1.216,-2.419 z M 67.207,25.43 c 0.066,0.153 0.147,0.346 0.147,0.346 0.289,0.66 0.581,1.332 0.581,2.112 0,0.67 -0.242,1.428 -0.861,2.319 C 67.013,30.1 66.96,30.005 66.91,29.911 66.715,29.098 66.576,28.829 66.346,28.451 66.337,28.405 66.328,28.359 66.319,28.309 l -0.067,-0.347 c 0.002,-0.8 0.351,-1.536 0.955,-2.532 z m -0.176,5.609 c -0.193,-0.263 -0.427,-0.478 -0.688,-0.677 0.185,0.06 0.367,0.121 0.578,0.157 l 0.129,0.024 -0.006,-0.028 0.02,0.035 0.077,-0.106 c -0.05,0.177 -0.094,0.355 -0.115,0.543 0.001,0.004 0.003,0.028 0.005,0.052 z m -2.033,-6.535 c 0.054,-0.614 0.293,-1.258 0.678,-2.071 0.08,0.145 0.183,0.331 0.183,0.331 0.403,0.711 0.814,1.436 0.814,2.365 0,0.59 -0.187,1.271 -0.628,2.073 C 65.972,27.101 65.908,27.01 65.847,26.921 65.57,26.134 65.404,25.881 65.136,25.53 65.122,25.484 65.108,25.439 65.094,25.391 L 64.99,25.052 c -0.007,-0.069 -0.009,-0.137 -0.011,-0.205 0.009,-0.118 0.014,-0.231 0.019,-0.343 z m 1.089,3.528 C 65.866,27.789 65.612,27.6 65.332,27.43 c 0.191,0.039 0.378,0.081 0.592,0.096 l 0.13,0.009 -0.009,-0.028 0.024,0.034 0.067,-0.113 c -0.033,0.181 -0.058,0.363 -0.058,0.551 0,0.004 0.005,0.028 0.009,0.053 z m -3.402,-6.928 c 1.541,0.745 2.15,1.572 2.15,3.133 0,0.042 -0.006,0.092 -0.007,0.136 -0.002,0.059 -0.006,0.122 -0.009,0.184 -0.007,0.103 -0.008,0.199 -0.017,0.306 -1.714,-1.019 -2.095,-2.097 -2.117,-3.759 z m 2.134,3.984 c 0,0 10e-4,0.003 10e-4,0.004 0.001,0.005 0.007,0.025 0.014,0.047 -0.13,-0.115 -0.269,-0.208 -0.41,-0.3 0.128,0.085 0.25,0.17 0.396,0.253 0,-10e-4 -10e-4,-0.004 -10e-4,-0.004 z M 62.19,24.271 c 1.141,0.218 1.922,0.451 2.528,0.995 0,0.003 0.21,0.281 0.21,0.281 0.017,0.023 0.032,0.043 0.048,0.064 0.277,0.362 0.437,0.611 0.712,1.392 0.033,0.097 0.068,0.197 0.106,0.312 -2.149,-0.226 -2.969,-1.761 -3.604,-3.044 z m 1.36,2.622 c 1.111,0.335 1.863,0.649 2.408,1.254 0.001,0.002 0.18,0.3 0.18,0.3 0.015,0.024 0.027,0.046 0.042,0.069 0.237,0.389 0.37,0.655 0.562,1.459 0.024,0.1 0.048,0.203 0.074,0.321 -2.115,-0.449 -2.77,-2.061 -3.266,-3.403 z m 1.077,2.749 c 1.071,0.45 1.785,0.841 2.264,1.499 0,0.003 0.148,0.317 0.148,0.317 0.012,0.026 0.022,0.049 0.034,0.074 0.194,0.412 0.3,0.689 0.406,1.51 0.013,0.102 0.027,0.206 0.04,0.325 C 65.463,32.7 64.98,31.028 64.627,29.642 z m 0.784,2.846 c 1.019,0.559 1.688,1.023 2.095,1.727 0,0.005 0.113,0.332 0.113,0.332 0.01,0.027 0.018,0.051 0.027,0.076 0.151,0.431 0.227,0.717 0.246,1.546 0.002,0.102 0.005,0.207 0.006,0.327 -1.976,-0.879 -2.281,-2.591 -2.487,-4.008 z m 0.526,2.913 c 0.954,0.662 1.572,1.192 1.903,1.936 10e-4,0.007 0.078,0.343 0.078,0.343 0.007,0.028 0.012,0.051 0.019,0.078 0.072,0.303 0.119,0.526 0.119,0.902 0,0.063 -0.006,0.147 -0.008,0.222 -0.033,0.002 -0.065,0.004 -0.097,0.009 -0.232,0.041 -0.439,0.147 -0.607,0.298 -1.254,-1.074 -1.357,-2.546 -1.407,-3.788 z m 1.171,4.7 c 0,-0.249 0.099,-0.468 0.244,-0.649 0.044,-0.055 0.089,-0.105 0.144,-0.151 0.136,-0.114 0.3,-0.185 0.483,-0.218 0.021,-0.005 0.04,-0.011 0.061,-0.013 0.039,-0.005 0.074,-0.023 0.115,-0.023 0.004,0 0.005,-0.002 0.009,-0.002 0.018,0 0.035,0.01 0.054,0.011 0.198,0.01 0.373,0.082 0.528,0.188 0.053,0.036 0.115,0.063 0.159,0.107 0.194,0.192 0.315,0.457 0.315,0.75 0,0.332 -0.165,0.617 -0.406,0.811 -0.049,0.04 -0.103,0.076 -0.159,0.107 -0.149,0.08 -0.311,0.138 -0.491,0.138 -0.036,0 -0.066,-0.017 -0.1,-0.02 -0.025,-0.003 -0.048,-0.011 -0.072,-0.015 -0.036,-0.007 -0.071,-0.012 -0.106,-0.021 -0.022,-0.007 -0.047,-0.007 -0.069,-0.015 -0.165,-0.058 -0.309,-0.15 -0.424,-0.276 -0.048,-0.051 -0.079,-0.112 -0.115,-0.171 -0.098,-0.159 -0.17,-0.337 -0.17,-0.538 z m -1.695,4.437 c 0.181,-1.239 0.438,-2.703 1.82,-3.64 0.143,0.167 0.328,0.293 0.54,0.364 0.034,0.012 0.068,0.024 0.104,0.033 -0.034,0.509 -0.107,0.762 -0.228,1.105 -0.009,0.026 -0.017,0.05 -0.026,0.077 l -0.12,0.35 c -0.4,0.689 -1.072,1.151 -2.09,1.711 z m 2.191,-1.114 c -0.203,0.058 -0.376,0.138 -0.552,0.214 0.237,-0.224 0.447,-0.46 0.609,-0.74 l 0.001,-0.001 c 0.045,0.214 0.112,0.414 0.196,0.61 -0.009,-0.009 -0.015,-0.018 -0.024,-0.028 l -0.09,-0.099 -0.017,0.039 0.002,-0.031 -0.125,0.036 z m -2.975,3.96 c 0.354,-1.387 0.837,-3.058 2.892,-3.727 -0.013,0.12 -0.026,0.226 -0.039,0.328 -0.106,0.82 -0.211,1.098 -0.407,1.509 -0.011,0.025 -0.022,0.048 -0.034,0.074 L 66.885,45.9 c -0.469,0.644 -1.183,1.034 -2.256,1.484 z m 2.297,-0.879 c -0.209,0.037 -0.388,0.098 -0.572,0.156 0.258,-0.197 0.489,-0.409 0.678,-0.669 l -10e-4,0.029 c 0.019,0.197 0.065,0.382 0.118,0.566 -0.001,-0.002 -0.002,-0.002 -0.002,-0.002 l -0.079,-0.109 -0.02,0.034 0.007,-0.027 -0.129,0.022 z m -3.374,3.628 c 0.496,-1.342 1.152,-2.954 3.266,-3.403 -0.025,0.116 -0.049,0.219 -0.073,0.321 -0.192,0.803 -0.326,1.069 -0.563,1.458 -0.013,0.023 -0.026,0.045 -0.041,0.069 l -0.191,0.314 c -0.534,0.592 -1.285,0.906 -2.398,1.241 z M 65.926,49.5 c -0.211,0.015 -0.396,0.056 -0.584,0.094 0.277,-0.168 0.53,-0.354 0.746,-0.594 l -0.005,0.029 c -0.001,0.198 0.024,0.385 0.058,0.574 -0.001,0 -0.001,0 -0.002,-0.002 l -0.067,-0.117 -0.023,0.031 0.008,-0.026 -0.131,0.011 z m -3.732,3.254 c 0.633,-1.282 1.453,-2.817 3.604,-3.043 -0.039,0.115 -0.074,0.214 -0.108,0.31 -0.274,0.783 -0.435,1.032 -0.711,1.394 -0.016,0.021 -0.031,0.041 -0.048,0.064 l -0.222,0.293 c -0.596,0.534 -1.375,0.765 -2.515,0.982 z m 2.637,-0.117 c -0.02,-0.05 -0.03,-0.091 -0.052,-0.141 l -0.041,-0.089 0.014,-0.029 -0.027,-0.002 -0.002,-0.003 -0.003,0.003 -0.098,-0.003 c -0.212,-0.007 -0.402,0.015 -0.594,0.034 0.293,-0.139 0.565,-0.299 0.806,-0.515 l -0.009,0.029 c -0.026,0.242 -0.021,0.479 0.006,0.716 z m -1.657,2.919 c -0.173,1.519 -0.855,2.288 -2.445,2.863 0.195,-1.641 0.685,-2.669 2.471,-3.5 -0.027,0.21 -0.038,0.423 -0.026,0.637 z m 0.05,-0.854 c -0.126,0.054 -0.235,0.115 -0.349,0.173 0.119,-0.062 0.239,-0.125 0.353,-0.204 -0.003,0.01 -0.002,0.02 -0.004,0.031 z m -0.051,-0.196 c -0.648,0.467 -1.448,0.616 -2.605,0.714 0.768,-1.215 1.73,-2.688 3.914,-2.674 -0.035,0.077 -0.065,0.141 -0.097,0.208 -0.412,0.885 -0.596,1.098 -0.96,1.482 l -0.028,0.03 -0.224,0.24 z m 0.842,2.595 c 0,0 -0.124,0.177 -0.219,0.314 -0.239,-0.681 -0.397,-1.246 -0.446,-1.764 -0.009,-0.102 -0.021,-0.205 -0.021,-0.304 0,-0.211 0.02,-0.419 0.065,-0.628 0,0 0.009,-0.019 0.018,-0.042 0.035,-0.078 0.116,-0.269 0.116,-0.269 0.007,-0.015 0.012,-0.031 0.019,-0.046 0.001,0 0.005,-0.005 0.005,-0.005 0.367,-0.387 0.558,-0.591 0.984,-1.504 0.044,-0.05 0.082,-0.094 0.13,-0.149 0.29,0.69 0.424,1.284 0.424,1.793 0,1.1 -0.544,1.861 -1.075,2.604 z m 1.846,-2.839 c 0,0 -0.103,0.186 -0.183,0.331 -0.435,-0.92 -0.698,-1.625 -0.698,-2.325 0,-0.103 0.006,-0.206 0.016,-0.311 0.002,0 0.1,-0.322 0.1,-0.322 0.015,-0.048 0.029,-0.093 0.042,-0.139 0.268,-0.352 0.435,-0.605 0.713,-1.392 0.061,-0.089 0.124,-0.179 0.197,-0.282 0.44,0.803 0.629,1.485 0.629,2.075 0,0.929 -0.412,1.655 -0.816,2.365 z m 1.497,-3.012 c 0,0 -0.082,0.192 -0.147,0.345 -0.605,-0.995 -0.955,-1.733 -0.955,-2.548 0.002,0 0.065,-0.33 0.065,-0.33 0.011,-0.051 0.019,-0.098 0.029,-0.144 0.229,-0.378 0.368,-0.647 0.563,-1.459 0.051,-0.093 0.103,-0.188 0.164,-0.295 0.618,0.891 0.862,1.649 0.862,2.319 0,0.78 -0.294,1.451 -0.581,2.112 z m 1.547,-4.981 c 0,0.646 -0.189,1.242 -0.374,1.827 0,0 -0.061,0.201 -0.11,0.36 -0.706,-0.927 -1.13,-1.623 -1.215,-2.435 0,-10e-4 0.03,-0.335 0.03,-0.335 0.004,-0.051 0.007,-0.097 0.013,-0.144 0.188,-0.399 0.298,-0.683 0.406,-1.511 0.042,-0.099 0.086,-0.204 0.138,-0.321 0.836,0.967 1.112,1.799 1.112,2.559 z m 0.663,-2.96 c 0,0.508 -0.101,1 -0.201,1.486 0,0 -0.039,0.206 -0.07,0.369 -0.8,-0.85 -1.295,-1.498 -1.464,-2.295 0,0 0,-0.004 0,-0.011 0,-0.056 -0.004,-0.324 -0.004,-0.324 -0.002,-0.039 -0.002,-0.07 -0.002,-0.107 0.116,-0.332 0.191,-0.592 0.226,-1.107 0.037,0.004 0.073,0.012 0.111,0.012 0.223,0 0.429,-0.065 0.61,-0.169 0.6,0.762 0.794,1.47 0.794,2.146 z m -15.153,-3.447 -0.176,0.964 c -0.012,0.062 -1.171,6.262 -3.925,8.998 0,0 -0.199,0.215 0.01,0.412 0.209,0.197 0.696,0.611 1.147,0.963 -1.943,2.322 -5.48,5.22 -11.615,6.65 4.369,-2.324 14.359,-9.177 14.359,-23.248 V 23.467 H 20.5 v 11.134 c 0,14.071 9.992,20.924 14.361,23.248 -6.135,-1.43 -9.673,-4.328 -11.616,-6.65 0.451,-0.352 0.86,-0.706 1.147,-0.963 0,0 0.099,-0.062 0.099,-0.201 0,-0.137 -0.089,-0.211 -0.089,-0.211 -2.754,-2.736 -3.913,-8.936 -3.925,-8.998 l -0.176,-0.965 -0.365,0.911 c 0,0 -1.037,2.593 -1.279,3.196 -0.488,-0.441 -3.375,-3.052 -3.375,-3.052 l 0.209,0.884 c 0.055,0.234 1.023,4.247 2.634,7.456 -0.518,0.321 -1.073,0.649 -1.634,0.947 -0.132,0.071 -0.186,0.232 -0.124,0.368 1.897,4.174 8.212,10.422 16.682,12.171 0.014,0.222 0.023,0.417 0.023,0.577 0,0.527 0.717,0.853 4.286,0.853 3.569,0 4.287,-0.326 4.287,-0.853 0,-0.16 0.008,-0.355 0.022,-0.577 8.471,-1.749 14.786,-7.997 16.683,-12.171 0.062,-0.136 0.007,-0.297 -0.126,-0.368 -0.559,-0.298 -1.115,-0.626 -1.632,-0.947 1.61,-3.209 2.578,-7.222 2.633,-7.456 l 0.209,-0.884 c 0,0 -2.887,2.611 -3.375,3.052 -0.242,-0.603 -1.644,-4.106 -1.644,-4.106 z m -3.142,10.432 c 0.421,-0.24 0.829,-0.77 1.254,-1.326 0.315,-0.411 0.777,-1.013 1.009,-1.078 -0.134,0.353 -0.622,1.467 -1.7,2.857 -0.184,-0.14 -0.371,-0.291 -0.563,-0.453 z m -10.906,8.157 c 0.217,0.013 0.472,0.031 0.718,0.057 -0.233,0.065 -0.535,0.129 -0.904,0.185 0,-0.108 -10e-4,-0.19 -0.002,-0.257 0.086,0.007 0.188,0.015 0.188,0.015 z M 21.286,34.601 V 24.253 H 53.43 V 34.601 C 53.43,51.976 37.736,58 37.577,58.06 L 37.358,58.141 37.139,58.06 C 36.981,58 21.286,51.976 21.286,34.601 z m 18.433,23.32 c -0.026,0.026 -0.048,0.055 -0.065,0.089 -0.025,0.038 -0.043,0.078 -0.043,0.121 v 0.64 c -0.564,0.063 -1.241,0.104 -1.999,0.113 l 0.239,-0.088 c 0.033,-0.013 0.755,-0.291 1.868,-0.875 z m -4.657,0.089 c -0.017,-0.034 -0.039,-0.063 -0.065,-0.091 1.114,0.586 1.836,0.864 1.869,0.877 l 0.239,0.088 c -0.758,-0.009 -1.436,-0.05 -2,-0.113 v -0.64 c 0,-0.043 -0.018,-0.083 -0.043,-0.121 z m -0.713,0.441 c 0,0 0.102,-0.008 0.188,-0.015 -10e-4,0.067 -10e-4,0.149 -0.002,0.257 -0.368,-0.056 -0.67,-0.12 -0.904,-0.185 0.246,-0.026 0.502,-0.044 0.718,-0.057 z M 16.282,42.583 c 0.826,0.746 2.598,2.349 2.598,2.349 l 0.152,-0.377 c 0,0 0.689,-1.722 1.086,-2.714 0.415,1.796 1.553,5.841 3.689,8.148 -0.319,0.278 -0.629,0.528 -0.926,0.758 -1.297,-1.671 -1.741,-2.948 -1.743,-2.977 -0.009,-0.103 -0.072,-0.211 -0.165,-0.253 -0.094,-0.043 -0.203,-0.049 -0.285,0.012 -0.014,0.011 -0.896,0.663 -2.083,1.425 -1.135,-2.284 -1.951,-5.007 -2.323,-6.371 z m 4.298,5.115 c -0.004,0.017 -0.005,0.037 -0.005,0.06 0,-0.002 -10e-4,-0.002 -10e-4,-0.002 0,-0.019 0.002,-0.04 0.006,-0.058 z m 12.195,10.371 c -0.004,10e-4 -0.008,-0.004 -0.012,-0.002 -0.006,0 -0.009,0.007 -0.015,0.009 -0.003,10e-4 -0.009,10e-4 -0.013,0.003 -0.014,0.004 -0.021,0.019 -0.034,0.026 -0.037,0.019 -0.07,0.043 -0.095,0.075 -0.024,0.038 -0.04,0.083 -0.046,0.129 -0.001,0.007 -0.007,0.012 -0.007,0.019 -0.002,-0.005 -0.01,-0.005 -0.012,-0.009 0,0 0.006,0.014 0.006,0.016 0,0.005 -0.008,0.005 -0.008,0.008 0,0.016 0.002,0.03 0.004,0.045 v 0.003 l 0.002,0.012 c 0.019,0.136 0.315,2.202 0.455,3.725 -8.04,-1.72 -14.043,-7.535 -15.991,-11.564 0.473,-0.259 0.936,-0.536 1.374,-0.805 0.164,-0.103 0.325,-0.203 0.48,-0.302 0.799,-0.51 1.467,-0.973 1.837,-1.238 0.197,0.604 0.752,1.653 1.725,2.868 0.118,0.148 0.24,0.297 0.371,0.448 1.932,2.247 5.261,4.924 10.422,6.446 -0.164,0.024 -0.319,0.052 -0.443,0.088 z m 8.596,2.051 c -0.086,0.685 -0.174,1.455 -0.231,2.112 -0.019,0.218 -0.032,0.419 -0.043,0.606 -0.008,0.155 -0.015,0.3 -0.016,0.424 -0.102,0.081 -0.664,0.345 -3.722,0.345 h -0.001 c -3.243,0 -3.687,-0.299 -3.743,-0.359 10e-4,-0.025 10e-4,-0.053 10e-4,-0.08 0,-0.1 -0.004,-0.211 -0.009,-0.331 -0.008,-0.184 -0.021,-0.387 -0.038,-0.606 -0.053,-0.649 -0.139,-1.421 -0.225,-2.111 -0.056,-0.448 -0.11,-0.865 -0.154,-1.183 0.004,0.002 0.01,0.002 0.014,0.004 0.339,0.128 0.8,0.233 1.326,0.315 0.004,0 0.006,0 0.01,0.002 0.178,0.026 0.364,0.052 0.555,0.074 0.004,0 0.007,0 0.01,0 0.711,0.081 1.497,0.124 2.253,0.124 0.757,0 1.542,-0.043 2.253,-0.124 0.003,0 0.006,0 0.01,0 0.191,-0.022 0.377,-0.048 0.556,-0.074 0.003,-0.002 0.006,-0.002 0.009,-0.002 0.526,-0.082 0.987,-0.187 1.326,-0.315 0.005,-0.002 0.01,-0.002 0.014,-0.004 -0.044,0.318 -0.099,0.733 -0.155,1.183 z m 16.337,-9.556 c -1.949,4.029 -7.951,9.844 -15.991,11.564 0.139,-1.523 0.435,-3.589 0.454,-3.725 l 0.002,-0.012 v -0.003 c 0.003,-0.014 0.003,-0.027 0.003,-0.039 0,-0.006 -0.008,-0.004 -0.009,-0.009 10e-4,-0.002 0.008,-0.021 0.008,-0.021 -0.002,0.006 -0.011,0.007 -0.014,0.012 -0.008,-0.113 -0.068,-0.216 -0.179,-0.252 -0.131,-0.043 -0.301,-0.074 -0.481,-0.098 5.159,-1.524 8.487,-4.199 10.419,-6.446 0.131,-0.151 0.253,-0.3 0.372,-0.448 0.972,-1.215 1.527,-2.265 1.724,-2.868 0.371,0.265 1.038,0.729 1.837,1.238 0.155,0.099 0.315,0.199 0.48,0.302 0.439,0.269 0.901,0.544 1.375,0.805 z m -3.572,-2.866 c 0.004,0.018 0.006,0.039 0.006,0.058 0,0 0,0 0,0.002 0,-0.023 -0.002,-0.043 -0.006,-0.06 z m 1.976,1.254 c -1.166,-0.746 -2.03,-1.383 -2.073,-1.416 -0.16,-0.178 -0.336,-0.225 -0.461,-0.225 -0.496,0 -0.961,0.608 -1.5,1.313 -0.264,0.345 -0.592,0.771 -0.876,1.025 1.946,-2.346 3.001,-6.097 3.396,-7.808 0.397,0.992 1.238,3.091 1.238,3.091 0,0 1.772,-1.603 2.598,-2.349 -0.372,1.364 -1.188,4.087 -2.322,6.369 z m -43.619,3.932 c 0.14,0.029 0.267,0.06 0.42,0.088 l 0.171,0.031 -0.132,-0.268 c -0.404,-0.817 -0.907,-1.825 -1.828,-2.499 0.136,0.041 0.258,0.086 0.406,0.129 l 0.167,0.048 -0.103,-0.278 c -0.316,-0.857 -0.71,-1.912 -1.557,-2.679 0.13,0.056 0.247,0.113 0.39,0.171 l 0.162,0.066 -0.073,-0.287 c -0.225,-0.885 -0.507,-1.975 -1.269,-2.827 0.124,0.07 0.235,0.138 0.371,0.211 L 9.771,44.873 9.729,44.581 C 9.551,43.358 9.307,41.753 7.838,40.746 7.955,40.558 8.025,40.338 8.025,40.101 8.025,39.807 7.917,39.54 7.744,39.328 9.075,38.175 9.152,36.567 9.2,35.339 l 0.012,-0.295 -0.144,0.098 c -0.094,0.064 -0.167,0.121 -0.255,0.182 0.63,-0.913 0.79,-1.995 0.918,-2.877 l 0.043,-0.295 -0.153,0.084 c -0.137,0.073 -0.247,0.14 -0.372,0.211 0.763,-0.853 1.045,-1.943 1.27,-2.829 l 0.073,-0.286 -0.162,0.067 c -0.143,0.058 -0.26,0.114 -0.391,0.171 0.848,-0.768 1.242,-1.822 1.558,-2.679 l 0.103,-0.279 -0.167,0.049 c -0.149,0.043 -0.271,0.087 -0.407,0.13 0.923,-0.675 1.425,-1.683 1.829,-2.501 l 0.132,-0.267 -0.172,0.031 c -0.929,0.169 -1.613,0.346 -2.176,0.654 1.423,-1.01 1.719,-2.14 1.719,-3.76 v -0.137 l -0.125,0.056 C 10.82,21.566 10.126,22.355 9.981,23.685 9.848,23.237 9.644,22.759 9.371,22.193 L 9.298,22.039 9.215,22.191 8.946,22.676 C 8.456,23.54 7.926,24.49 8.186,25.817 8.073,25.614 7.954,25.408 7.814,25.18 L 7.724,25.036 7.657,25.194 7.441,25.705 C 7.045,26.613 6.614,27.61 7.008,28.899 6.875,28.712 6.738,28.523 6.577,28.314 L 6.473,28.18 6.423,28.345 6.261,28.877 C 5.962,29.82 5.638,30.857 6.165,32.097 6.013,31.924 5.857,31.75 5.675,31.56 L 5.558,31.438 5.525,31.607 5.42,32.151 c -0.203,0.991 -0.426,2.08 0.281,3.29 -0.19,-0.18 -0.396,-0.362 -0.628,-0.559 l -0.13,-0.11 -0.014,0.172 -0.048,0.553 c -0.113,1.151 -0.233,2.434 1.046,3.731 0.041,0.041 0.081,0.082 0.124,0.124 0.046,-0.045 0.106,-0.071 0.16,-0.108 C 6.16,39.198 6.122,39.151 6.076,39.105 5.209,38.235 4.989,37.381 4.989,36.546 c 0,-0.348 0.033,-0.692 0.067,-1.032 0,0 0.018,-0.209 0.032,-0.375 0.883,0.762 1.444,1.355 1.696,2.13 0,0.012 0.039,0.334 0.039,0.334 0.007,0.053 0.012,0.098 0.018,0.147 -0.081,0.341 -0.126,0.613 -0.108,1.126 0.002,0.054 0.006,0.119 0.01,0.179 0.017,-10e-4 0.032,-0.01 0.05,-0.01 0.003,0 0.005,0.002 0.008,0.002 0,0.001 0,0.002 -0.001,0.004 h 0.023 c 0.032,0.006 0.063,0.015 0.096,0.02 C 6.918,39.059 6.917,39.049 6.917,39.037 6.908,38.896 6.9,38.764 6.9,38.66 c 0,-0.376 0.047,-0.599 0.12,-0.903 0.006,-0.026 0.011,-0.05 0.018,-0.077 l 0.084,-0.359 c 0.326,-0.728 0.944,-1.257 1.897,-1.92 -0.049,1.242 -0.152,2.714 -1.406,3.788 -0.046,0.039 -0.102,0.075 -0.152,0.112 0.055,0.046 0.1,0.096 0.145,0.151 0.144,0.181 0.243,0.4 0.243,0.649 0,0.201 -0.071,0.379 -0.169,0.538 -0.036,0.059 -0.069,0.12 -0.115,0.171 -0.132,0.143 -0.303,0.237 -0.495,0.291 0.003,0.058 0.006,0.11 0.01,0.161 0,-10e-4 0,-0.002 -0.001,-0.002 C 7.076,41.208 7.073,41.158 7.07,41.101 7.035,41.11 6.999,41.116 6.963,41.122 c -0.058,0.01 -0.109,0.035 -0.17,0.035 -0.18,0 -0.342,-0.058 -0.491,-0.138 C 6.245,40.988 6.193,40.952 6.143,40.911 6.101,40.961 6.067,41.009 6.029,41.059 4.937,42.463 5.187,43.71 5.416,44.83 l 0.138,0.712 0.118,-0.121 c 0.194,-0.202 0.362,-0.387 0.521,-0.57 -0.575,1.276 -0.24,2.335 0.066,3.3 l 0.211,0.693 0.105,-0.132 c 0.16,-0.209 0.297,-0.398 0.43,-0.585 -0.394,1.289 0.037,2.286 0.433,3.194 l 0.283,0.667 0.09,-0.142 c 0.14,-0.229 0.259,-0.435 0.373,-0.637 -0.261,1.327 0.269,2.277 0.758,3.139 l 0.351,0.635 0.075,-0.151 c 0.136,-0.281 0.254,-0.541 0.357,-0.786 -0.17,1.412 0.481,2.327 1.074,3.158 l 0.416,0.595 0.059,-0.158 c 0.196,-0.547 0.336,-1.009 0.426,-1.439 0.301,1.242 1.078,1.925 2.614,2.449 l 0.13,0.044 -0.014,-0.137 c -0.17,-1.619 -0.586,-2.712 -2.122,-3.57 0.601,0.256 1.304,0.361 2.251,0.431 l 0.175,0.014 -0.16,-0.253 C 14.086,54.408 13.482,53.459 12.493,52.884 z M 10.33,29.642 C 9.977,31.029 9.494,32.7 7.438,33.367 7.451,33.248 7.464,33.144 7.477,33.043 7.584,32.221 7.689,31.944 7.884,31.53 7.896,31.506 7.906,31.484 7.918,31.46 l 0.156,-0.335 c 0.47,-0.643 1.184,-1.033 2.256,-1.483 z M 7.355,33.601 C 7.559,33.542 7.733,33.463 7.91,33.385 7.673,33.609 7.463,33.845 7.302,34.124 L 7.301,34.094 C 7.26,33.901 7.197,33.722 7.125,33.545 l 0.001,10e-4 0.09,0.1 0.016,-0.037 -0.003,0.029 0.126,-0.037 z m 0.68,-3.082 c 0.208,-0.036 0.389,-0.097 0.572,-0.155 -0.258,0.197 -0.49,0.409 -0.68,0.669 L 7.93,31.005 C 7.909,30.809 7.864,30.624 7.812,30.44 l 0,0 0.08,0.11 0.02,-0.036 -0.006,0.029 0.129,-0.024 z m 3.372,-3.626 c -0.496,1.342 -1.151,2.954 -3.265,3.403 0.025,-0.118 0.049,-0.221 0.073,-0.321 0.191,-0.804 0.325,-1.071 0.562,-1.458 0.014,-0.024 0.027,-0.046 0.042,-0.071 l 0.19,-0.314 c 0.535,-0.591 1.286,-0.904 2.398,-1.239 z M 9.032,27.526 C 9.244,27.511 9.431,27.47 9.62,27.43 9.342,27.6 9.088,27.786 8.872,28.026 L 8.877,27.997 C 8.878,27.8 8.852,27.612 8.819,27.423 v 0.001 l 0.068,0.117 0.023,-0.032 -0.008,0.026 0.13,-0.009 z m 3.239,-6.422 c -0.022,1.663 -0.402,2.741 -2.117,3.759 -0.009,-0.119 -0.012,-0.228 -0.018,-0.342 -0.002,-0.043 -0.005,-0.086 -0.007,-0.128 -10e-4,-0.05 -0.008,-0.107 -0.008,-0.156 0,-1.561 0.61,-2.388 2.15,-3.133 z m -1.764,3.752 c -0.131,0.086 -0.262,0.17 -0.381,0.277 l 0.008,-0.028 c 10e-4,-0.004 0,-0.007 0,-0.012 0.137,-0.077 0.251,-0.158 0.373,-0.237 z m -0.478,0.69 0.222,-0.292 c 0.594,-0.533 1.374,-0.765 2.515,-0.983 -0.634,1.283 -1.454,2.818 -3.604,3.044 C 9.2,27.2 9.235,27.101 9.269,27.004 9.544,26.223 9.704,25.973 9.98,25.611 9.997,25.589 10.012,25.569 10.029,25.546 z M 9.098,22.764 c 0,0 0.103,-0.186 0.184,-0.331 0.396,0.839 0.639,1.497 0.681,2.137 0.003,0.083 0.007,0.166 0.013,0.252 -0.002,0.082 -0.005,0.164 -0.013,0.247 -10e-4,0 -0.099,0.321 -0.099,0.321 C 9.849,25.439 9.835,25.484 9.821,25.529 9.553,25.88 9.387,26.134 9.108,26.922 9.048,27.01 8.985,27.101 8.912,27.202 8.471,26.4 8.283,25.719 8.283,25.129 c 0,-0.929 0.412,-1.655 0.815,-2.365 z m -1.496,3.012 c 0,0 0.082,-0.193 0.146,-0.346 0.605,0.996 0.955,1.733 0.955,2.549 -0.002,0 -0.065,0.33 -0.065,0.33 -0.01,0.05 -0.019,0.096 -0.028,0.142 -0.229,0.378 -0.369,0.647 -0.563,1.46 -0.05,0.093 -0.103,0.189 -0.164,0.296 -0.619,-0.891 -0.862,-1.649 -0.862,-2.319 0,-0.78 0.293,-1.452 0.581,-2.112 z m -1.547,4.979 c 0,-0.644 0.188,-1.24 0.374,-1.826 0,0 0.061,-0.2 0.109,-0.36 0.706,0.928 1.131,1.624 1.216,2.436 -10e-4,0.001 -0.03,0.333 -0.03,0.333 -0.004,0.052 -0.009,0.1 -0.013,0.147 -0.189,0.4 -0.299,0.682 -0.408,1.511 -0.041,0.1 -0.085,0.203 -0.135,0.319 -0.837,-0.966 -1.113,-1.799 -1.113,-2.56 z m -0.663,2.917 c 0,-0.509 0.1,-1 0.2,-1.486 0,0 0.04,-0.205 0.071,-0.368 0.8,0.848 1.294,1.496 1.464,2.294 l 0.005,0.337 c 0.001,0.053 0.001,0.098 0.002,0.146 -0.147,0.419 -0.227,0.711 -0.248,1.552 -0.029,0.1 -0.063,0.208 -0.099,0.323 C 5.701,35.454 5.392,34.537 5.392,33.672 z m 1.566,3.59 -0.003,-0.029 C 6.886,37.019 6.796,36.821 6.689,36.63 c 0.027,0.025 0.05,0.05 0.079,0.076 l 0.101,0.09 0.011,-0.036 v 0.026 L 7.001,36.737 C 7.167,36.67 7.302,36.586 7.448,36.508 7.253,36.742 7.082,36.984 6.958,37.262 z M 7.059,36.496 C 7.06,36.376 7.062,36.271 7.064,36.17 7.084,35.339 7.16,35.054 7.311,34.623 7.32,34.598 7.328,34.575 7.337,34.549 l 0.121,-0.35 c 0.4,-0.689 1.07,-1.152 2.088,-1.711 -0.206,1.416 -0.511,3.129 -2.487,4.008 z m 5.704,16.258 C 11.623,52.537 10.842,52.304 10.237,51.758 10.236,51.757 10.026,51.479 10.026,51.479 10.008,51.456 9.994,51.436 9.977,51.415 9.701,51.053 9.54,50.802 9.266,50.021 9.232,49.924 9.197,49.824 9.159,49.711 c 2.15,0.226 2.97,1.761 3.604,3.043 z m -2.545,-0.347 -0.04,0.089 c -0.019,0.043 -0.027,0.081 -0.046,0.124 0.025,-0.227 0.027,-0.452 0.003,-0.682 0,-0.003 -0.007,-0.027 -0.015,-0.051 0.245,0.218 0.519,0.379 0.814,0.52 -0.193,-0.019 -0.385,-0.041 -0.599,-0.034 l -0.098,0.003 -0.003,-0.003 -0.002,0.003 -0.028,0.002 0.014,0.029 z M 8.907,49.515 8.885,49.484 8.818,49.599 c 0.032,-0.182 0.058,-0.364 0.058,-0.552 0,-0.004 -0.005,-0.028 -0.009,-0.054 0.219,0.242 0.475,0.431 0.754,0.603 C 9.431,49.556 9.243,49.515 9.03,49.5 l -0.131,-0.011 0.008,0.026 z m 2.497,0.618 C 10.293,49.798 9.541,49.484 8.996,48.878 8.995,48.875 8.816,48.578 8.816,48.578 8.8,48.554 8.788,48.532 8.774,48.509 8.537,48.12 8.403,47.854 8.212,47.049 8.188,46.949 8.164,46.846 8.138,46.73 c 2.115,0.449 2.77,2.061 3.266,3.403 z M 7.909,46.51 7.889,46.476 7.811,46.582 c 0.051,-0.177 0.096,-0.355 0.116,-0.543 0,-0.003 -0.002,-0.027 -0.004,-0.055 0.192,0.265 0.426,0.48 0.686,0.679 C 8.424,46.604 8.242,46.543 8.031,46.505 L 7.903,46.483 7.909,46.51 z m 2.418,0.874 C 9.256,46.934 8.541,46.544 8.063,45.885 8.063,45.881 7.915,45.568 7.915,45.568 7.903,45.542 7.893,45.52 7.881,45.495 7.686,45.083 7.581,44.805 7.474,43.982 7.461,43.881 7.448,43.776 7.435,43.657 c 2.056,0.669 2.539,2.339 2.892,3.727 z M 7.229,43.416 7.213,43.38 7.123,43.479 c -0.008,0.009 -0.014,0.017 -0.022,0.025 0.083,-0.193 0.15,-0.39 0.195,-0.599 0,-10e-4 0,-0.01 0,-0.012 0.165,0.284 0.376,0.522 0.614,0.748 C 7.732,43.563 7.557,43.483 7.352,43.424 l -0.125,-0.036 0.002,0.028 z m 0.495,-2.518 c 1.383,0.937 1.639,2.401 1.819,3.64 C 8.525,43.978 7.855,43.515 7.448,42.81 7.448,42.806 7.334,42.476 7.334,42.476 7.324,42.45 7.316,42.426 7.307,42.401 7.25,42.238 7.205,42.094 7.169,41.933 7.167,41.925 7.164,41.917 7.162,41.907 7.147,41.838 7.135,41.762 7.123,41.682 7.12,41.662 7.116,41.645 7.114,41.624 7.103,41.547 7.096,41.458 7.088,41.366 7.086,41.341 7.084,41.317 7.082,41.294 7.337,41.231 7.558,41.091 7.724,40.898 z m -0.713,0.411 0.002,0.006 h -0.06 c 0.019,-0.002 0.04,-0.002 0.058,-0.006 z M 5.66,45.164 C 5.628,45.001 5.589,44.795 5.589,44.795 c -0.1,-0.486 -0.2,-0.977 -0.2,-1.486 0,-0.676 0.194,-1.384 0.794,-2.146 0.18,0.104 0.387,0.169 0.61,0.169 0.038,0 0.073,-0.007 0.109,-0.012 0.036,0.521 0.111,0.772 0.228,1.107 0,0.036 0,0.067 -0.001,0.105 L 7.122,42.886 C 6.954,43.667 6.459,44.315 5.66,45.164 z m 0.875,3.292 C 6.487,48.298 6.426,48.097 6.426,48.097 6.24,47.511 6.052,46.915 6.052,46.27 c 0,-0.76 0.276,-1.593 1.113,-2.56 0.05,0.116 0.094,0.22 0.135,0.32 0.108,0.829 0.219,1.112 0.408,1.511 0.004,0.048 0.009,0.095 0.013,0.146 l 0.03,0.351 c -0.085,0.795 -0.509,1.49 -1.216,2.418 z m 1.211,3.141 C 7.681,51.442 7.599,51.25 7.599,51.25 7.312,50.589 7.018,49.918 7.018,49.138 c 0,-0.67 0.243,-1.428 0.862,-2.319 0.061,0.106 0.114,0.202 0.164,0.295 0.194,0.812 0.333,1.081 0.563,1.459 0.009,0.046 0.018,0.093 0.028,0.144 l 0.067,0.347 C 8.7,49.862 8.351,50.598 7.746,51.597 z m 1.532,2.996 C 9.198,54.448 9.095,54.262 9.095,54.262 8.691,53.55 8.28,52.826 8.28,51.897 c 0,-0.59 0.188,-1.272 0.629,-2.075 0.073,0.103 0.136,0.193 0.196,0.282 0.278,0.787 0.445,1.04 0.713,1.392 0.014,0.046 0.028,0.091 0.043,0.14 l 0.103,0.338 c 0.01,0.1 0.016,0.2 0.016,0.297 0,0.692 -0.265,1.399 -0.702,2.322 z m 2.33,1.064 c -0.05,0.514 -0.209,1.077 -0.447,1.758 -0.095,-0.137 -0.219,-0.314 -0.219,-0.314 -0.531,-0.743 -1.075,-1.504 -1.075,-2.604 0,-0.509 0.134,-1.103 0.424,-1.793 0.048,0.055 0.087,0.099 0.129,0.149 0.426,0.913 0.617,1.117 0.985,1.504 l 0.005,0.005 c 0.007,0.017 0.013,0.031 0.02,0.048 l 0.115,0.273 0.022,0.051 c 0.043,0.203 0.063,0.403 0.063,0.609 0,0.102 -0.012,0.208 -0.022,0.314 z m 0.126,-0.976 c -10e-4,0 -0.005,-0.012 -0.006,-0.016 0.123,0.086 0.251,0.157 0.382,0.224 -0.121,-0.064 -0.239,-0.126 -0.374,-0.187 -0.001,-0.007 0,-0.014 -0.002,-0.021 z m 2.493,3.738 c -1.586,-0.573 -2.268,-1.339 -2.443,-2.852 0.012,-0.218 0.004,-0.435 -0.025,-0.648 1.784,0.831 2.274,1.861 2.468,3.5 z m -2.455,-3.925 c -10e-4,-0.002 -0.153,-0.165 -0.212,-0.228 -0.014,-0.014 -0.028,-0.03 -0.028,-0.03 -0.196,-0.205 -0.339,-0.36 -0.494,-0.597 0,0 0,0 0,-0.002 -0.132,-0.202 -0.276,-0.475 -0.466,-0.883 -0.032,-0.069 -0.062,-0.131 -0.097,-0.208 2.184,-0.014 3.145,1.459 3.914,2.674 -1.158,-0.098 -1.958,-0.247 -2.617,-0.726 z M 47.999,31.549 c -0.049,0.098 -0.097,0.197 -0.157,0.288 v 2.651 h 0.157 v -2.939 z m 0,11.172 h -0.157 v 5.636 c 0.053,-0.072 0.106,-0.143 0.157,-0.215 v -5.421 z m 0,-17.212 h -0.157 v 3.266 c 0.06,0.092 0.108,0.19 0.157,0.289 v -3.555 z m -0.812,6.394 c 0.393,-0.419 0.639,-0.979 0.639,-1.596 0,-0.619 -0.246,-1.179 -0.639,-1.597 v 3.193 z m 1.624,-6.394 h -0.157 v 8.979 h 0.157 v -8.979 z m 0,17.212 h -0.157 v 4.434 c 0.054,-0.084 0.105,-0.17 0.157,-0.255 v -4.179 z m 0.813,0.001 h -0.157 v 3.035 c 0.052,-0.097 0.107,-0.19 0.157,-0.288 V 42.722 z M 45.562,27.497 v -1.988 h -0.157 v 1.988 c 0.026,0 0.051,-0.008 0.078,-0.008 0.027,0 0.052,0.008 0.079,0.008 z m -0.813,5.021 c 0.208,0.069 0.426,0.114 0.656,0.122 v -4.667 c -0.23,0.008 -0.448,0.052 -0.656,0.121 v 4.424 z m 0,-7.009 h -0.157 v 2.138 c 0.052,-0.017 0.104,-0.034 0.157,-0.049 v -2.089 z m -0.812,6.542 c 0.194,0.172 0.412,0.318 0.655,0.418 v -4.327 c -0.243,0.102 -0.461,0.248 -0.655,0.419 v 3.49 z m 2.437,-6.542 h -0.157 v 2.089 c 0.053,0.015 0.105,0.032 0.157,0.049 v -2.138 z m -0.812,7.131 c 0.229,-0.008 0.447,-0.053 0.655,-0.122 v -4.424 c -0.208,-0.069 -0.426,-0.113 -0.655,-0.121 v 4.667 z m 0.812,-0.171 c 0.244,-0.1 0.461,-0.246 0.656,-0.418 v -3.49 C 46.835,28.39 46.618,28.244 46.374,28.142 v 4.327 z m 0.813,-6.96 H 47.03 v 2.446 c 0.055,0.038 0.104,0.083 0.157,0.122 v -2.568 z m 3.249,0 h -0.157 v 8.98 h 0.157 v -8.98 z m -5.844,8.978 h 0.157 v -1.473 c -0.053,-0.015 -0.105,-0.032 -0.157,-0.049 v 1.522 z m 0.813,-1.372 v 1.373 h 0.157 v -1.373 c -0.027,10e-4 -0.052,0.008 -0.079,0.008 -0.027,0 -0.052,-0.007 -0.078,-0.008 z m 0,18.115 c 0.052,-0.054 0.104,-0.109 0.157,-0.162 v -8.347 h -0.157 v 8.509 z m -0.813,0.782 c 0.052,-0.05 0.105,-0.094 0.157,-0.144 V 42.721 L 44.592,42.72 v 9.292 z M 43.78,34.487 h 0.157 V 32.656 C 43.881,32.62 43.832,32.576 43.78,32.534 v 1.953 z m 0.157,-8.978 H 43.78 v 2.568 c 0.052,-0.039 0.101,-0.084 0.157,-0.122 V 25.509 z M 43.78,52.731 c 0.052,-0.043 0.104,-0.087 0.157,-0.134 V 42.72 H 43.78 v 10.011 z m 6.656,-10.009 h -0.157 v 1.349 c 0.054,-0.123 0.106,-0.246 0.157,-0.371 v -0.978 z m 0.813,-17.213 h -0.157 v 8.98 h 0.157 v -8.98 z m 0.813,0 h -0.158 v 8.98 h 0.158 v -8.98 z m -2.438,0 h -0.157 v 8.979 h 0.157 v -8.979 z m -2.594,8.979 h 0.157 v -1.954 c -0.053,0.042 -0.102,0.086 -0.157,0.122 v 1.832 z m -0.813,0 h 0.157 v -1.523 c -0.052,0.017 -0.104,0.034 -0.157,0.049 v 1.474 z m 0.813,14.926 c 0.052,-0.064 0.105,-0.129 0.157,-0.194 V 42.721 H 47.03 v 6.693 z m -0.813,0.954 c 0.053,-0.06 0.105,-0.12 0.157,-0.18 v -7.467 h -0.157 v 7.647 z m -7.968,-7.649 h -0.157 v 2.604 c 0.053,0.014 0.105,0.032 0.157,0.049 V 42.719 z M 30.78,34.486 h 0.157 v -1.952 c -0.053,0.042 -0.102,0.086 -0.157,0.122 v 1.83 z m -0.813,-6.888 c 0.053,0.015 0.105,0.031 0.157,0.049 v -2.138 h -0.157 v 2.089 z m 0.813,24.999 0.157,0.134 V 42.718 H 30.78 v 9.879 z M 27.529,34.485 h 0.158 v -1.829 c -0.056,-0.036 -0.105,-0.08 -0.158,-0.121 v 1.95 z m 4.063,10e-4 h 0.157 v -2.937 c -0.049,0.099 -0.098,0.198 -0.157,0.289 v 2.648 z m -1.625,17.38 c 0.052,0.05 0.104,0.096 0.157,0.144 v -9.292 h -0.157 v 9.148 z m 1.625,1.406 c 0.052,0.043 0.105,0.086 0.157,0.127 V 42.718 H 31.592 V 53.272 z M 30.78,27.955 c 0.055,0.038 0.104,0.083 0.157,0.122 V 25.509 H 30.78 v 2.446 z m -2.438,-0.308 c 0.052,-0.017 0.104,-0.034 0.157,-0.049 v -2.089 h -0.157 v 2.138 z m 0.812,-0.15 c 0.027,0 0.052,-0.008 0.079,-0.008 0.027,0 0.052,0.008 0.079,0.008 v -1.988 h -0.158 v 1.988 z m -0.812,22.691 c 0.052,0.06 0.104,0.12 0.157,0.178 v -7.648 h -0.157 v 7.47 z M 27.529,28.077 c 0.053,-0.039 0.102,-0.084 0.158,-0.122 v -2.446 h -0.158 v 2.568 z m 0.813,6.408 h 0.157 v -1.471 c -0.053,-0.015 -0.105,-0.032 -0.157,-0.049 v 1.52 z m 0.812,-1.37 v 1.37 h 0.158 v -1.37 c -0.027,10e-4 -0.052,0.008 -0.079,0.008 -0.027,0 -0.052,-0.007 -0.079,-0.008 z m 0,17.952 c 0.053,0.054 0.105,0.109 0.158,0.163 v -8.512 h -0.158 v 8.349 z m 2.438,-22.293 c 0.059,0.091 0.108,0.191 0.157,0.289 v -3.554 h -0.157 v 3.265 z m -1.625,5.712 h 0.157 v -1.521 c -0.052,0.017 -0.104,0.034 -0.157,0.049 v 1.472 z m 5.688,11.316 c 0.053,-0.042 0.101,-0.085 0.157,-0.122 v -2.961 h -0.157 v 3.083 z m 0,-11.315 h 0.157 v -8.978 h -0.157 v 8.978 z m -0.813,-0.001 h 0.157 v -8.977 h -0.157 v 8.977 z m 0.813,21.479 c 0.052,0.027 0.106,0.056 0.157,0.084 V 50.38 c -0.056,-0.036 -0.104,-0.081 -0.157,-0.122 v 5.707 z M 43.78,28.71 c -0.394,0.418 -0.639,0.978 -0.639,1.597 0,0.617 0.245,1.177 0.639,1.596 V 28.71 z m -7.313,16.661 c 0.052,-0.017 0.104,-0.035 0.157,-0.049 v -2.604 h -0.157 v 2.653 z m 0,11.011 c 0.054,0.027 0.107,0.053 0.157,0.077 v -5.72 c -0.053,-0.016 -0.105,-0.033 -0.157,-0.05 v 5.693 z M 34.03,55.01 c 0.052,0.035 0.105,0.069 0.157,0.102 V 42.718 H 34.03 V 55.01 z m 0.812,-8.224 c 0.049,-0.098 0.098,-0.197 0.157,-0.288 v -3.78 h -0.157 v 4.068 z m -1.625,7.691 c 0.053,0.036 0.104,0.07 0.157,0.104 V 42.718 H 33.217 V 54.477 z M 32.405,34.486 h 0.157 v -8.977 h -0.157 v 8.977 z m 0.812,0 h 0.157 v -8.977 h -0.157 v 8.977 z m -0.812,19.412 c 0.052,0.04 0.104,0.079 0.157,0.117 V 42.718 h -0.157 v 11.18 z m 2.437,1.61 c 0.054,0.033 0.105,0.06 0.157,0.091 V 49.561 C 34.94,49.47 34.891,49.371 34.842,49.273 v 6.235 z M 34.03,34.486 h 0.157 V 25.509 H 34.03 v 8.977 z m 2.437,0.001 h 0.157 v -8.978 h -0.157 v 8.978 z m 3.407,8.233 h -0.157 v 3.777 c 0.06,0.092 0.108,0.191 0.157,0.289 V 42.72 z M 40.687,25.509 H 40.53 v 8.979 h 0.157 v -8.979 z m -0.813,23.764 c -0.049,0.1 -0.097,0.197 -0.157,0.29 v 6.036 c 0.053,-0.031 0.103,-0.058 0.157,-0.091 v -6.235 z m 0.813,-6.553 h -0.158 v 12.392 c 0.052,-0.033 0.105,-0.067 0.158,-0.1 V 42.72 z M 39.874,25.509 h -0.157 v 8.978 h 0.157 v -8.978 z m -0.812,0 h -0.157 v 8.978 h 0.157 v -8.978 z m 0,24.751 c -0.053,0.039 -0.102,0.084 -0.158,0.12 v 5.669 c 0.051,-0.026 0.105,-0.057 0.158,-0.084 V 50.26 z m 0,-7.541 h -0.158 v 2.961 c 0.056,0.036 0.105,0.08 0.158,0.121 v -3.082 z m 4.062,10e-4 h -0.157 v 10.679 c 0.052,-0.041 0.105,-0.084 0.157,-0.125 V 42.72 z m 0,-10.883 c -0.059,-0.091 -0.108,-0.19 -0.157,-0.288 v 2.938 h 0.157 v -2.65 z m -4.875,-6.328 h -0.157 v 8.978 h 0.157 v -8.978 z m 4.875,0 h -0.157 v 3.555 c 0.049,-0.099 0.098,-0.197 0.157,-0.289 V 25.509 z M 42.312,42.72 h -0.157 v 11.295 c 0.051,-0.038 0.104,-0.077 0.157,-0.117 V 42.72 z M 41.499,25.509 h -0.157 v 8.979 h 0.157 v -8.979 z m 0,17.211 h -0.157 v 11.863 c 0.052,-0.036 0.104,-0.07 0.157,-0.106 V 42.72 z m 0.813,-17.211 h -0.157 v 8.979 h 0.157 V 25.509 z M 37.437,56.758 V 50.84 c -0.027,0 -0.052,0.007 -0.079,0.007 -0.027,0 -0.052,-0.007 -0.078,-0.007 v 5.918 c 0.025,0.01 0.056,0.024 0.078,0.034 0.022,-0.01 0.054,-0.024 0.079,-0.034 z M 25.904,34.485 h 0.157 v -8.976 h -0.157 v 8.976 z m 0,12.413 c 0.053,0.086 0.104,0.171 0.157,0.257 v -4.438 h -0.157 v 4.181 z m -0.812,-1.429 c 0.051,0.098 0.105,0.19 0.157,0.287 v -3.039 h -0.157 v 2.752 z m 0,-10.984 h 0.157 v -8.976 h -0.157 v 8.976 z m 1.625,-5.422 c 0.049,-0.098 0.097,-0.197 0.157,-0.289 v -3.265 h -0.157 v 3.554 z m 0,19.077 c 0.052,0.074 0.105,0.145 0.157,0.217 v -5.639 h -0.157 v 5.422 z m 0,-13.655 h 0.157 v -2.647 c -0.06,-0.091 -0.108,-0.19 -0.157,-0.289 v 2.936 z m 0.812,14.735 c 0.052,0.065 0.105,0.129 0.158,0.194 v -6.696 h -0.158 v 6.502 z m -3.25,-14.736 h 0.157 v -8.975 h -0.157 v 8.975 z M 37.437,25.509 H 37.28 v 8.978 h 0.157 v -8.978 z m 0.812,25.18 c -0.052,0.017 -0.104,0.034 -0.157,0.05 v 5.72 c 0.05,-0.024 0.103,-0.05 0.157,-0.076 V 50.689 z M 37.437,45.221 V 42.719 H 37.28 v 2.502 c 0.026,-10e-4 0.051,-0.008 0.078,-0.008 0.027,0 0.052,0.007 0.079,0.008 z M 24.279,43.698 c 0.051,0.125 0.104,0.248 0.157,0.371 v -1.352 h -0.157 v 0.981 z m -1.625,-9.214 h 0.157 v -8.975 h -0.157 v 8.975 z m 0.813,0 h 0.157 v -8.975 h -0.157 v 8.975 z" /><path
   style="fill:#1a2e5a"
   inkscape:connector-curvature="0"
   id="path107"
   d="m 56.973,15.355 c 0.448,-0.563 1.074,-1.567 0.331,-2.157 -0.742,-0.589 -1.579,0.247 -2.026,0.81 -0.448,0.562 -1.074,1.567 -0.332,2.157 0.742,0.589 1.579,-0.247 2.027,-0.81 M 34.437,8.195 C 35.161,8.135 35.353,7.761 35.311,7.265 35.259,6.621 34.954,6.374 34.39,6.421 l -0.393,0.032 0.146,1.766 0.294,-0.024 z m 11.296,57.981 -0.376,0.117 0.529,1.69 0.282,-0.087 c 0.693,-0.216 0.798,-0.623 0.649,-1.098 -0.193,-0.617 -0.544,-0.792 -1.084,-0.622 z m -26.202,-4.769 -0.093,-0.071 -1.074,1.401 0.102,0.079 c 0.464,0.355 0.845,0.182 1.174,-0.247 0.326,-0.426 0.33,-0.826 -0.109,-1.162 z M 37.358,4.398 c -18.867,0 -34.217,15.345 -34.217,34.205 0,18.86 15.35,34.203 34.217,34.203 18.868,0 34.217,-15.343 34.217,-34.203 0,-18.86 -15.349,-34.205 -34.217,-34.205 z M 68.131,36.64 c -0.057,-0.176 -0.106,-0.33 -0.148,-0.472 0.004,0.145 0.005,0.304 0.005,0.488 -2.252,-0.913 -2.479,-2.877 -2.693,-4.343 1.196,0.644 1.858,1.115 2.287,1.859 0.058,0.173 0.108,0.309 0.152,0.436 0.002,-0.15 0.007,-0.311 0.009,-0.514 0.179,-0.838 0.662,-1.491 1.602,-2.473 0.249,1.459 0.941,3.086 -1.214,5.019 z m -0.365,-3.153 c -0.075,-0.17 -0.14,-0.319 -0.196,-0.456 0.018,0.145 0.037,0.303 0.056,0.486 -2.336,-0.673 -2.766,-2.603 -3.133,-4.038 1.258,0.517 1.965,0.916 2.47,1.61 0.075,0.167 0.139,0.297 0.196,0.419 -0.014,-0.149 -0.024,-0.311 -0.044,-0.511 0.09,-0.854 0.502,-1.554 1.334,-2.629 0.4,1.426 1.258,2.972 -0.683,5.119 z m -0.693,-3.098 c -0.092,-0.16 -0.171,-0.302 -0.242,-0.432 0.034,0.142 0.069,0.296 0.107,0.477 -2.394,-0.426 -3.024,-2.3 -3.539,-3.689 1.305,0.381 2.05,0.706 2.625,1.343 0.092,0.157 0.169,0.28 0.239,0.395 -0.029,-0.147 -0.057,-0.306 -0.098,-0.504 0,-0.858 0.338,-1.596 1.053,-2.752 0.546,1.376 1.562,2.824 -0.145,5.162 z m -2.16,-5.996 c 0.072,-0.618 0.321,-1.268 0.752,-2.161 0.687,1.311 1.848,2.645 0.396,5.148 -0.109,-0.151 -0.202,-0.283 -0.287,-0.405 0.049,0.138 0.099,0.289 0.156,0.464 -2.424,-0.173 -3.247,-1.971 -3.904,-3.298 1.338,0.243 2.113,0.487 2.75,1.06 0.109,0.147 0.198,0.262 0.28,0.369 -0.044,-0.143 -0.089,-0.299 -0.149,-0.491 -0.018,-0.166 -0.012,-0.33 -0.002,-0.494 -0.007,0.146 -0.008,0.284 -0.023,0.442 -1.909,-1.082 -2.295,-2.222 -2.295,-4.079 1.672,0.771 2.363,1.636 2.326,3.445 z m -5.111,-9.102 0.083,-0.074 2.33,2.528 -0.886,0.817 -0.075,-0.082 c 0.548,-0.748 0.31,-1.097 -0.236,-1.689 l -0.251,-0.272 -1.221,1.126 c 0.55,0.597 0.884,0.432 1.314,0.137 l 0.075,0.08 -1.516,1.397 -0.075,-0.081 c 0.398,-0.467 0.59,-0.785 0.039,-1.383 L 58.509,18.6 c -0.365,0.337 -0.484,0.446 -0.091,0.87 l -0.082,0.076 -1.447,-1.569 0.082,-0.075 c 0.392,0.425 0.509,0.316 0.876,-0.021 l 1.864,-1.718 c 0.366,-0.338 0.484,-0.446 0.091,-0.872 z M 54.43,13.334 c 0.785,-0.987 2.047,-1.092 3.02,-0.318 0.974,0.773 1.156,2.026 0.371,3.013 -0.785,0.987 -2.047,1.092 -3.02,0.318 -0.974,-0.772 -1.156,-2.025 -0.371,-3.013 z M 49.228,11.937 49.546,11.264 49.411,9.159 C 49.377,8.599 49.353,8.464 49.08,8.335 L 49.127,8.236 50.892,9.069 50.843,9.17 C 50.666,9.085 50.482,8.998 50.4,9.171 50.358,9.26 50.38,9.515 50.388,9.614 l 0.097,1.651 1.318,-0.887 c 0.101,-0.068 0.307,-0.202 0.359,-0.313 0.089,-0.189 -0.139,-0.338 -0.3,-0.415 l 0.047,-0.099 1.118,0.528 -0.048,0.1 c -0.317,-0.15 -0.614,0.104 -0.953,0.332 l -1.522,1.015 -0.392,0.829 c -0.237,0.501 -0.282,0.595 0.314,0.877 l -0.047,0.099 -2.075,-0.98 0.047,-0.101 c 0.595,0.282 0.64,0.187 0.877,-0.313 z m -4.654,-0.979 c 0.553,0.17 0.6,0.017 0.746,-0.459 L 46.221,7.565 45.903,7.467 C 45.456,7.33 45.166,7.395 44.796,8.034 L 44.69,8.002 45.013,6.949 48.502,8.02 48.178,9.072 48.072,9.039 C 48.125,8.303 47.921,8.086 47.474,7.948 l -0.318,-0.096 -0.901,2.933 c -0.146,0.477 -0.193,0.629 0.36,0.799 l -0.032,0.107 -2.042,-0.627 0.033,-0.106 z m -3.372,-0.68 c 0.569,0.101 0.597,-0.056 0.685,-0.547 l 0.444,-2.495 c 0.087,-0.49 0.115,-0.648 -0.455,-0.749 l 0.02,-0.109 2.102,0.373 -0.019,0.11 C 43.409,6.76 43.381,6.917 43.294,7.407 L 42.85,9.902 c -0.087,0.491 -0.116,0.649 0.454,0.75 l -0.019,0.108 -2.103,-0.374 0.02,-0.108 z M 37.8,8.663 37.91,8.67 c 0.05,0.663 0.523,1.365 1.229,1.411 0.35,0.022 0.751,-0.161 0.775,-0.549 0.06,-0.939 -2.11,-1.04 -2.021,-2.416 0.044,-0.687 0.664,-1.128 1.321,-1.086 0.295,0.019 0.481,0.086 0.731,0.23 0.084,0.049 0.172,0.104 0.271,0.11 0.165,0.011 0.187,-0.136 0.226,-0.263 l 0.111,0.008 -0.087,1.349 -0.11,-0.007 C 40.323,6.907 39.868,6.305 39.285,6.268 38.947,6.246 38.593,6.39 38.569,6.764 c -0.053,0.829 2.142,1.006 2.056,2.363 -0.05,0.768 -0.75,1.21 -1.475,1.163 -0.319,-0.02 -0.518,-0.095 -0.792,-0.236 -0.06,-0.028 -0.156,-0.065 -0.224,-0.069 -0.141,-0.01 -0.271,0.099 -0.322,0.219 L 37.701,10.197 37.8,8.663 z m 26.555,29.94 c 0,14.904 -12.087,26.986 -26.997,26.986 -14.909,0 -26.996,-12.082 -26.996,-26.986 0,-14.904 12.087,-26.986 26.996,-26.986 14.91,0 26.997,12.082 26.997,26.986 z M 34.702,6.161 c 0.92,-0.076 1.55,0.23 1.615,1.014 0.043,0.528 -0.343,0.936 -0.838,1.076 l 1.169,1.373 c 0.178,0.213 0.274,0.328 0.513,0.309 l 0.009,0.11 -1.275,0.105 -1.459,-1.744 -0.276,0.022 0.089,1.086 c 0.041,0.497 0.054,0.656 0.631,0.608 l 0.009,0.111 -2.098,0.172 -0.009,-0.11 c 0.577,-0.047 0.563,-0.207 0.523,-0.703 L 33.097,7.064 C 33.056,6.568 33.043,6.408 32.466,6.455 L 32.457,6.345 34.702,6.161 z M 31.151,6.599 31.43,7.773 31.322,7.798 C 30.938,6.954 30.516,6.991 29.732,7.177 l -0.329,0.079 0.385,1.615 c 0.688,-0.163 0.654,-0.573 0.62,-1.14 l 0.108,-0.025 0.498,2.093 -0.107,0.026 C 30.681,9.303 30.527,8.922 29.839,9.087 l 0.253,1.064 c 0.12,0.503 0.145,0.611 0.558,0.513 0.563,-0.133 1.27,-0.302 1.324,-1.402 l 0.108,-0.026 0.119,1.3 -3.424,0.813 -0.026,-0.107 c 0.563,-0.134 0.526,-0.289 0.411,-0.774 L 28.575,8.002 C 28.46,7.518 28.423,7.362 27.86,7.496 L 27.834,7.388 31.151,6.599 z m -6.238,1.889 0.041,0.103 c -0.227,0.091 -0.461,0.186 -0.383,0.379 0.037,0.092 0.184,0.225 0.252,0.297 l 1.681,1.663 0.075,-2.146 C 26.589,8.561 26.577,8.401 26.531,8.286 26.429,8.035 26.124,8.118 25.919,8.202 l -0.042,-0.103 1.244,-0.502 0.042,0.102 c -0.295,0.173 -0.334,0.44 -0.361,1.095 L 26.661,12.273 26.57,12.31 23.681,9.463 C 23.581,9.364 23.427,9.227 23.14,9.323 L 23.099,9.22 24.913,8.488 z m -2.574,1.174 0.054,0.096 c -0.504,0.283 -0.426,0.423 -0.182,0.857 l 1.24,2.212 c 0.243,0.434 0.321,0.573 0.826,0.291 l 0.054,0.097 -1.863,1.043 -0.054,-0.097 c 0.505,-0.282 0.427,-0.422 0.183,-0.857 l -1.24,-2.211 C 21.114,10.659 21.035,10.52 20.531,10.802 l -0.054,-0.096 1.862,-1.044 z m -4.921,3.153 3.089,0.822 0.01,-0.007 -1.121,-1.514 C 19.195,11.845 18.963,11.81 18.632,12.055 l -0.067,-0.089 1.113,-0.823 0.066,0.089 c -0.331,0.245 -0.366,0.478 -0.164,0.749 l 2.112,2.853 -0.08,0.059 -4.215,-1.083 -0.01,0.007 1.589,2.146 c 0.201,0.272 0.433,0.307 0.765,0.061 l 0.066,0.089 -1.113,0.824 -0.066,-0.089 c 0.331,-0.245 0.366,-0.477 0.164,-0.749 l -1.767,-2.388 c -0.309,-0.086 -0.461,-0.126 -0.698,0.049 l -0.066,-0.089 1.157,-0.856 z m -3.362,3.003 0.079,0.077 c -0.404,0.414 -0.29,0.526 0.067,0.874 l 1.581,1.543 c 0.326,0.317 0.737,0.513 1.227,0.01 0.542,-0.554 0.229,-1.187 -0.167,-1.572 L 15.531,15.47 C 15.17,15.118 15.012,14.998 14.629,15.389 l -0.079,-0.077 0.98,-1.004 0.079,0.077 c -0.382,0.392 -0.258,0.548 0.103,0.899 l 1.276,1.246 c 0.414,0.405 1.011,1.211 0.014,2.232 -0.714,0.731 -1.401,0.739 -2.052,0.103 l -1.431,-1.396 c -0.357,-0.348 -0.472,-0.46 -0.876,-0.046 l -0.079,-0.077 1.492,-1.528 z m -4.764,6.414 c 0.431,0.893 0.68,1.543 0.751,2.161 -0.036,-1.809 0.655,-2.674 2.327,-3.445 0,1.857 -0.387,2.997 -2.295,4.079 -0.016,-0.158 -0.016,-0.296 -0.023,-0.442 0.009,0.164 0.016,0.328 -0.002,0.494 -0.061,0.192 -0.105,0.348 -0.149,0.491 0.082,-0.107 0.171,-0.222 0.279,-0.369 0.638,-0.573 1.413,-0.817 2.751,-1.06 -0.658,1.327 -1.48,3.125 -3.905,3.298 C 9.082,27.264 9.134,27.114 9.182,26.976 9.098,27.098 9.004,27.23 8.895,27.38 7.444,24.877 8.605,23.543 9.292,22.232 z m -1.553,2.995 c 0.715,1.156 1.052,1.894 1.052,2.752 -0.04,0.198 -0.069,0.357 -0.097,0.505 0.07,-0.115 0.146,-0.239 0.239,-0.396 0.574,-0.637 1.319,-0.962 2.624,-1.343 -0.515,1.389 -1.145,3.263 -3.538,3.689 0.038,-0.181 0.073,-0.335 0.107,-0.477 -0.071,0.13 -0.15,0.272 -0.243,0.432 -1.705,-2.338 -0.69,-3.786 -0.144,-5.162 z m -1.231,3.141 c 0.832,1.075 1.244,1.775 1.334,2.629 -0.019,0.2 -0.031,0.361 -0.044,0.51 0.058,-0.121 0.121,-0.252 0.196,-0.418 0.504,-0.694 1.212,-1.093 2.47,-1.61 -0.367,1.435 -0.798,3.365 -3.134,4.038 0.02,-0.182 0.038,-0.34 0.057,-0.484 C 7.33,33.169 7.266,33.318 7.191,33.487 5.25,31.34 6.108,29.794 6.508,28.368 z m -0.896,3.253 c 0.939,0.982 1.423,1.635 1.601,2.473 0.002,0.203 0.007,0.364 0.01,0.514 0.044,-0.127 0.094,-0.263 0.152,-0.436 0.429,-0.744 1.09,-1.215 2.287,-1.859 -0.215,1.466 -0.441,3.43 -2.694,4.343 0,-0.183 0.002,-0.342 0.006,-0.487 C 6.931,36.311 6.884,36.464 6.826,36.64 4.671,34.707 5.363,33.08 5.612,31.621 z m 0.55,9.408 C 5.86,40.823 5.65,40.494 5.65,40.101 c 0,-0.35 0.165,-0.652 0.413,-0.861 -1.543,-1.502 -1.13,-2.981 -1.047,-4.291 1.038,0.88 1.586,1.478 1.852,2.294 0.022,0.201 0.045,0.36 0.063,0.509 0.031,-0.131 0.065,-0.272 0.105,-0.45 0.349,-0.783 0.958,-1.321 2.081,-2.087 -0.053,1.286 -0.078,2.948 -1.492,4.11 0.19,0.205 0.312,0.475 0.312,0.776 0,0.248 -0.095,0.465 -0.229,0.652 1.565,1.007 1.763,2.674 1.951,3.96 C 8.462,44.068 7.8,43.597 7.372,42.854 7.314,42.679 7.264,42.542 7.219,42.415 7.216,42.554 7.211,42.702 7.21,42.887 7.032,43.725 6.549,44.378 5.609,45.361 5.39,44.078 4.831,42.665 6.162,41.029 z m 1.026,2.51 c 0.075,0.169 0.139,0.317 0.196,0.454 -0.019,-0.144 -0.037,-0.302 -0.057,-0.485 2.336,0.674 2.767,2.603 3.134,4.037 C 9.203,47.03 8.496,46.632 7.991,45.936 7.916,45.771 7.853,45.64 7.795,45.518 c 0.013,0.15 0.024,0.311 0.044,0.512 -0.09,0.852 -0.502,1.553 -1.334,2.627 -0.4,-1.425 -1.258,-2.971 0.683,-5.118 z m 0.692,3.098 c 0.093,0.16 0.171,0.3 0.242,0.431 -0.033,-0.143 -0.068,-0.297 -0.106,-0.476 2.394,0.426 3.023,2.3 3.538,3.689 C 10.249,49.9 9.504,49.575 8.93,48.937 8.837,48.779 8.761,48.655 8.691,48.54 c 0.028,0.148 0.056,0.307 0.097,0.507 0,0.858 -0.337,1.596 -1.052,2.752 C 7.19,50.423 6.174,48.974 7.88,46.637 z m 1.013,3.009 c 0.109,0.149 0.202,0.281 0.286,0.403 C 9.131,49.912 9.08,49.76 9.023,49.587 c 2.425,0.173 3.247,1.97 3.905,3.297 -1.338,-0.242 -2.113,-0.486 -2.751,-1.061 -0.108,-0.146 -0.197,-0.26 -0.279,-0.367 0.044,0.143 0.089,0.299 0.15,0.491 C 10.138,52.8 9.88,53.57 9.289,54.794 8.602,53.483 7.441,52.149 8.893,49.646 z m 2.755,5.054 c 0.004,0.019 0.003,0.039 0.006,0.06 1.992,0.875 2.495,1.965 2.688,3.807 -1.665,-0.567 -2.45,-1.308 -2.652,-2.944 -0.043,0.56 -0.206,1.171 -0.499,1.989 -0.82,-1.234 -2.115,-2.438 -0.932,-5.08 0.088,0.098 0.159,0.18 0.233,0.266 -0.049,-0.106 -0.097,-0.209 -0.154,-0.338 2.429,-0.08 3.435,1.62 4.228,2.871 -1.356,-0.101 -2.152,-0.262 -2.846,-0.767 -0.088,-0.096 -0.165,-0.177 -0.236,-0.252 0.049,0.117 0.099,0.239 0.164,0.388 z m 6.573,8.222 -0.651,0.85 c -0.303,0.395 -0.401,0.522 0.058,0.873 l -0.067,0.088 -1.67,-1.279 0.067,-0.087 c 0.459,0.35 0.557,0.225 0.86,-0.172 l 1.542,-2.011 c 0.303,-0.395 0.401,-0.522 -0.058,-0.874 l 0.067,-0.087 1.524,1.167 c 0.693,0.532 0.986,1.22 0.541,1.802 -0.356,0.463 -1.031,0.636 -2.027,-0.127 l -0.186,-0.143 z m 4.24,1.1 -1.307,2.171 c -0.257,0.428 -0.34,0.565 0.155,0.864 l -0.057,0.094 -1.829,-1.1 0.057,-0.096 c 0.496,0.298 0.578,0.161 0.835,-0.266 l 1.307,-2.171 c 0.257,-0.426 0.34,-0.563 -0.156,-0.862 l 0.057,-0.094 1.83,1.1 -0.057,0.094 C 22.8,63.458 22.717,63.595 22.461,64.022 z m 4.204,2.42 -0.101,-0.046 c 0.144,-0.724 -0.031,-0.965 -0.458,-1.157 l -0.303,-0.135 -1.26,2.799 c -0.204,0.453 -0.27,0.599 0.257,0.837 l -0.045,0.1 -1.947,-0.875 0.045,-0.102 c 0.528,0.237 0.594,0.093 0.798,-0.362 l 1.26,-2.799 -0.303,-0.137 c -0.427,-0.191 -0.723,-0.163 -1.17,0.425 l -0.101,-0.044 0.452,-1.004 3.328,1.496 -0.452,1.004 z m 4.206,1.243 -0.106,-0.031 C 30.8,66.916 30.592,66.705 30.141,66.578 l -0.319,-0.091 -0.834,2.954 c -0.135,0.48 -0.179,0.635 0.378,0.791 l -0.03,0.106 -2.055,-0.58 0.03,-0.106 c 0.557,0.158 0.6,0.003 0.736,-0.476 l 0.833,-2.955 -0.32,-0.089 c -0.45,-0.127 -0.739,-0.055 -1.094,0.592 l -0.107,-0.029 0.299,-1.061 3.512,0.99 -0.299,1.061 z m 3.411,2.329 c -0.106,0.76 -0.837,1.15 -1.556,1.048 -0.317,-0.043 -0.51,-0.132 -0.773,-0.293 -0.058,-0.033 -0.151,-0.077 -0.218,-0.086 -0.14,-0.021 -0.278,0.079 -0.338,0.194 l -0.11,-0.014 0.213,-1.524 0.11,0.016 c 0,0.664 0.419,1.4 1.12,1.498 0.348,0.048 0.761,-0.106 0.814,-0.489 0.13,-0.932 -2.027,-1.196 -1.836,-2.562 0.095,-0.681 0.747,-1.076 1.399,-0.985 0.292,0.041 0.474,0.122 0.711,0.287 0.08,0.053 0.164,0.115 0.262,0.128 0.165,0.024 0.197,-0.121 0.245,-0.245 l 0.11,0.015 -0.187,1.341 -0.109,-0.016 c 0.008,-0.551 -0.4,-1.186 -0.979,-1.266 -0.336,-0.046 -0.7,0.07 -0.752,0.441 -0.114,0.825 2.062,1.165 1.874,2.512 z m 2.887,1.263 -2.006,-0.009 0.001,-0.109 c 0.578,10e-4 0.579,-0.158 0.581,-0.656 l 0.011,-2.535 c 0.002,-0.498 0.003,-0.657 -0.576,-0.661 v -0.11 l 2.142,0.009 c 1.44,0.007 1.436,0.892 1.436,1.016 -0.003,0.565 -0.49,0.791 -0.94,0.892 v 0.014 c 0.578,0.113 1.149,0.361 1.147,1.05 -0.002,0.418 -0.331,1.106 -1.796,1.099 z m 5.905,-3.795 0.257,1.766 c 0.083,0.572 0.067,1.576 -1.346,1.782 -1.01,0.146 -1.562,-0.265 -1.692,-1.166 L 40.005,67.885 C 39.933,67.392 39.91,67.234 39.337,67.317 l -0.015,-0.11 2.112,-0.307 0.017,0.109 c -0.573,0.084 -0.55,0.242 -0.478,0.735 l 0.318,2.185 c 0.065,0.451 0.273,0.856 0.968,0.755 0.767,-0.112 0.902,-0.803 0.823,-1.351 l -0.264,-1.814 c -0.073,-0.499 -0.125,-0.69 -0.667,-0.611 l -0.016,-0.11 1.388,-0.202 0.016,0.11 c -0.542,0.08 -0.538,0.279 -0.465,0.776 z m 4.945,2.001 -1.806,-1.381 -0.265,0.082 0.326,1.039 c 0.148,0.475 0.196,0.628 0.748,0.456 l 0.033,0.105 -2.008,0.628 -0.033,-0.105 c 0.552,-0.173 0.504,-0.326 0.355,-0.801 l -0.757,-2.418 c -0.149,-0.476 -0.196,-0.629 -0.748,-0.457 l -0.033,-0.105 2.149,-0.672 c 0.881,-0.275 1.563,-0.115 1.798,0.636 0.158,0.505 -0.129,0.989 -0.581,1.233 l 1.441,1.082 c 0.221,0.17 0.34,0.261 0.569,0.191 l 0.033,0.105 -1.221,0.382 z m 4.126,-1.675 c -1.175,0.594 -2.412,0.234 -2.952,-0.83 -0.573,-1.136 -0.089,-2.401 1.025,-2.964 0.402,-0.203 0.671,-0.258 0.874,-0.277 0.205,-0.02 0.342,-0.006 0.457,-0.065 0.149,-0.075 0.144,-0.259 0.136,-0.4 l 0.099,-0.049 0.647,1.278 -0.099,0.05 c -0.506,-0.496 -1.234,-0.721 -1.887,-0.39 -0.934,0.471 -0.687,1.531 -0.304,2.29 0.4,0.789 1.03,1.587 2.008,1.095 0.204,-0.103 0.368,-0.228 0.538,-0.41 l -0.305,-0.604 c -0.225,-0.444 -0.297,-0.586 -0.814,-0.326 l -0.05,-0.099 1.796,-0.906 0.05,0.097 c -0.434,0.22 -0.362,0.363 -0.137,0.807 l 0.314,0.621 c -0.32,0.513 -1.056,0.911 -1.396,1.082 z m 4.708,-3.032 -0.066,-0.089 c 0.466,-0.344 0.37,-0.472 0.074,-0.874 l -0.706,-0.954 -1.148,0.849 0.706,0.955 c 0.297,0.399 0.393,0.528 0.857,0.185 l 0.066,0.089 -1.717,1.27 -0.065,-0.089 c 0.465,-0.345 0.369,-0.474 0.073,-0.874 l -1.508,-2.037 c -0.297,-0.4 -0.392,-0.528 -0.857,-0.185 l -0.065,-0.089 1.715,-1.269 0.067,0.088 c -0.465,0.345 -0.37,0.473 -0.074,0.873 l 0.644,0.871 1.149,-0.85 -0.645,-0.87 c -0.296,-0.4 -0.392,-0.529 -0.857,-0.184 l -0.066,-0.089 1.717,-1.27 0.065,0.089 c -0.465,0.343 -0.369,0.472 -0.073,0.872 l 1.509,2.037 c 0.297,0.402 0.391,0.531 0.856,0.186 l 0.066,0.089 -1.717,1.27 z m 6.912,-7.164 C 63.473,56.795 63.31,56.184 63.266,55.627 63.064,57.26 62.28,58 60.614,58.567 c 0.194,-1.842 0.697,-2.932 2.688,-3.807 0.004,-0.021 0.003,-0.04 0.006,-0.06 0.065,-0.149 0.117,-0.271 0.165,-0.388 -0.071,0.075 -0.148,0.156 -0.236,0.252 -0.695,0.505 -1.49,0.666 -2.846,0.767 0.792,-1.251 1.798,-2.951 4.228,-2.871 -0.057,0.129 -0.106,0.232 -0.155,0.338 0.074,-0.086 0.146,-0.168 0.235,-0.266 1.181,2.642 -0.113,3.846 -0.934,5.08 z m 1.902,-2.818 c -0.59,-1.224 -0.848,-1.994 -0.759,-2.847 0.062,-0.192 0.107,-0.348 0.151,-0.491 -0.082,0.107 -0.171,0.221 -0.279,0.367 -0.638,0.575 -1.413,0.819 -2.751,1.061 0.658,-1.327 1.48,-3.124 3.904,-3.297 -0.056,0.173 -0.108,0.325 -0.156,0.462 0.084,-0.122 0.178,-0.254 0.287,-0.403 1.452,2.503 0.291,3.837 -0.397,5.148 z m 1.554,-2.995 c -0.716,-1.156 -1.052,-1.894 -1.052,-2.752 0.04,-0.2 0.068,-0.357 0.097,-0.505 -0.07,0.115 -0.146,0.237 -0.239,0.395 -0.574,0.638 -1.32,0.963 -2.624,1.344 0.515,-1.389 1.145,-3.263 3.538,-3.689 -0.039,0.179 -0.074,0.335 -0.107,0.476 0.071,-0.131 0.15,-0.271 0.243,-0.431 1.705,2.337 0.69,3.786 0.144,5.162 z m 1.231,-3.142 c -0.833,-1.074 -1.245,-1.775 -1.334,-2.627 0.019,-0.201 0.031,-0.362 0.044,-0.512 -0.058,0.121 -0.121,0.252 -0.197,0.418 -0.504,0.696 -1.211,1.094 -2.47,1.609 0.368,-1.434 0.798,-3.363 3.134,-4.037 -0.02,0.184 -0.038,0.341 -0.057,0.487 0.058,-0.137 0.121,-0.286 0.197,-0.456 1.942,2.147 1.082,3.693 0.683,5.118 z m 0.896,-3.296 c -0.94,-0.983 -1.423,-1.636 -1.602,-2.474 0,-0.184 -0.005,-0.333 -0.008,-0.472 -0.045,0.127 -0.095,0.265 -0.153,0.439 -0.429,0.743 -1.09,1.214 -2.288,1.859 0.189,-1.286 0.387,-2.953 1.952,-3.96 -0.134,-0.187 -0.229,-0.404 -0.229,-0.652 0,-0.301 0.122,-0.571 0.312,-0.776 -1.414,-1.162 -1.44,-2.824 -1.493,-4.11 1.125,0.766 1.732,1.304 2.082,2.087 0.039,0.178 0.074,0.32 0.105,0.451 0.018,-0.149 0.041,-0.309 0.064,-0.51 0.264,-0.816 0.814,-1.414 1.851,-2.294 0.084,1.31 0.496,2.789 -1.048,4.291 0.248,0.209 0.414,0.511 0.414,0.861 0,0.393 -0.21,0.722 -0.512,0.928 1.331,1.636 0.771,3.049 0.553,4.332 z m -32.466,23.91 h -0.184 l -0.006,1.383 c -0.002,0.283 0.06,0.388 0.343,0.389 0.504,0.002 0.844,-0.353 0.847,-0.846 0,-0.245 -0.058,-0.921 -1,-0.926 z m 0.866,-1.035 c 0.001,-0.186 -0.07,-0.795 -0.87,-0.798 h -0.172 l -0.007,1.599 c 0.75,0.004 1.047,-0.292 1.049,-0.801 z" /><path
   style="fill:#1a2e5a"
   inkscape:connector-curvature="0"
   id="path109"
   d="m 44.908,58.395 c -0.001,-0.072 -0.007,-0.254 -0.033,-0.316 -0.051,-0.115 -0.199,-0.094 -0.296,-0.062 l -0.026,-0.058 0.658,-0.287 0.025,0.059 c -0.188,0.104 -0.188,0.297 -0.185,0.491 l 0.045,2.095 -0.058,0.026 -1.567,-1.462 c -0.17,-0.16 -0.249,-0.256 -0.495,-0.169 l -0.025,-0.058 0.874,-0.379 0.025,0.058 c -0.094,0.057 -0.232,0.12 -0.173,0.256 0.036,0.084 0.145,0.173 0.209,0.235 l 1.055,0.985 -0.033,-1.414" /><path
   style="fill:#1a2e5a"
   inkscape:connector-curvature="0"
   id="path111"
   d="m 47.218,58.719 c 0.14,0.259 0.183,0.337 0.473,0.179 l 0.03,0.056 -0.872,0.472 -0.03,-0.056 c 0.291,-0.156 0.249,-0.234 0.109,-0.495 l -0.683,-1.261 c -0.141,-0.259 -0.182,-0.336 -0.473,-0.178 l -0.03,-0.057 0.872,-0.472 0.03,0.057 c -0.291,0.156 -0.249,0.233 -0.108,0.494 l 0.682,1.261" /><path
   style="fill:#1a2e5a"
   inkscape:connector-curvature="0"
   id="path113"
   d="m 49.806,57.664 -1.255,-0.479 -0.2,0.13 0.349,0.536 c 0.16,0.249 0.208,0.322 0.486,0.142 l 0.035,0.054 -0.832,0.538 -0.034,-0.053 c 0.277,-0.178 0.229,-0.252 0.068,-0.501 L 47.641,56.83 C 47.48,56.583 47.432,56.509 47.155,56.689 l -0.035,-0.053 0.846,-0.551 c 0.575,-0.373 0.897,-0.105 1.008,0.067 0.183,0.283 0.061,0.588 -0.162,0.808 l 0.726,0.283 c 0.274,0.108 0.474,0.182 0.756,0.029 l 0.034,0.054 -0.522,0.338 m -1.516,-0.443 0.065,-0.043 c 0.28,-0.182 0.509,-0.474 0.296,-0.8 -0.153,-0.237 -0.427,-0.309 -0.666,-0.154 -0.082,0.053 -0.152,0.12 -0.224,0.183 l 0.529,0.814 z" /><path
   style="fill:#1a2e5a"
   inkscape:connector-curvature="0"
   id="path115"
   d="m 51.376,55.932 c 0.185,0.23 0.241,0.299 0.498,0.091 l 0.04,0.05 -0.772,0.621 -0.039,-0.048 c 0.257,-0.208 0.201,-0.276 0.016,-0.506 l -1.086,-1.346 -0.271,0.218 c -0.227,0.184 -0.186,0.376 -0.062,0.556 l -0.05,0.04 -0.323,-0.44 1.479,-1.191 0.36,0.409 -0.049,0.039 c -0.15,-0.159 -0.329,-0.24 -0.556,-0.056 l -0.27,0.218 1.085,1.345" /><path
   style="fill:#1a2e5a"
   inkscape:connector-curvature="0"
   id="path117"
   d="m 52.57,54.381 c 0.335,0.315 0.759,0.485 1.272,-0.057 0.502,-0.53 0.27,-0.977 -0.036,-1.267 l -0.754,-0.712 c -0.214,-0.202 -0.279,-0.262 -0.051,-0.503 l -0.046,-0.043 -0.558,0.589 0.046,0.045 c 0.227,-0.241 0.291,-0.181 0.505,0.022 l 0.629,0.594 c 0.138,0.13 0.337,0.319 0.383,0.516 0.051,0.232 -0.059,0.477 -0.216,0.642 -0.16,0.17 -0.396,0.266 -0.62,0.165 -0.118,-0.053 -0.315,-0.22 -0.414,-0.314 L 52.035,53.421 C 51.82,53.219 51.757,53.157 51.983,52.918 l -0.045,-0.044 -0.681,0.721 0.046,0.042 c 0.227,-0.24 0.291,-0.178 0.505,0.025 l 0.762,0.719" /><path
   style="fill:#1a2e5a"
   inkscape:connector-curvature="0"
   id="path119"
   d="m 54.756,50.533 -0.036,0.051 c -0.318,-0.187 -0.7,-0.158 -0.918,0.162 -0.113,0.164 -0.103,0.418 0.072,0.537 0.403,0.276 1.19,-0.728 1.76,-0.34 0.302,0.206 0.391,0.616 0.14,0.985 -0.091,0.134 -0.183,0.213 -0.263,0.268 -0.08,0.06 -0.145,0.101 -0.193,0.17 -0.046,0.067 -0.006,0.115 0.048,0.161 l -0.036,0.052 -0.66,-0.45 0.036,-0.052 c 0.495,0.273 0.818,-0.025 0.934,-0.197 0.134,-0.194 0.161,-0.451 -0.051,-0.597 -0.441,-0.301 -1.192,0.685 -1.767,0.293 -0.296,-0.202 -0.331,-0.618 -0.125,-0.92 0.071,-0.104 0.157,-0.173 0.233,-0.223 0.076,-0.055 0.143,-0.091 0.169,-0.128 0.048,-0.069 0.007,-0.122 -0.043,-0.174 l 0.036,-0.053 0.664,0.455" /><path
   style="fill:#1a2e5a"
   inkscape:connector-curvature="0"
   id="path121"
   d="m 20.835,51.374 c 0.07,-0.017 0.244,-0.067 0.297,-0.108 0.101,-0.078 0.044,-0.215 -0.01,-0.302 l 0.05,-0.04 0.437,0.57 -0.05,0.038 c -0.148,-0.157 -0.334,-0.112 -0.521,-0.06 l -2.024,0.55 -0.038,-0.049 1.039,-1.874 c 0.114,-0.203 0.187,-0.304 0.043,-0.522 l 0.05,-0.038 0.58,0.755 -0.05,0.04 c -0.077,-0.079 -0.172,-0.196 -0.29,-0.107 -0.072,0.055 -0.134,0.184 -0.176,0.261 l -0.703,1.262 1.366,-0.376" /><path
   style="fill:#1a2e5a"
   inkscape:connector-curvature="0"
   id="path123"
   d="m 22.11,52.222 0.402,0.436 c 0.224,0.243 0.268,0.332 0.052,0.621 l 0.047,0.051 0.354,-0.367 -1.21,-1.313 -0.047,0.043 c 0.224,0.242 0.16,0.302 -0.058,0.501 l -1.055,0.973 c -0.217,0.199 -0.282,0.259 -0.506,0.016 l -0.046,0.043 1.222,1.326 0.563,-0.25 -0.045,-0.05 c -0.355,0.077 -0.537,0.093 -0.746,-0.134 l -0.325,-0.352 c -0.1,-0.108 -0.105,-0.161 0.001,-0.259 l 0.626,-0.577 0.317,0.345 c 0.193,0.21 0.231,0.302 0.023,0.532 l 0.043,0.047 0.597,-0.549 -0.043,-0.047 c -0.245,0.196 -0.339,0.136 -0.527,-0.068 l -0.317,-0.345 0.678,-0.623" /><path
   style="fill:#1a2e5a"
   inkscape:connector-curvature="0"
   id="path125"
   d="m 22.927,56.119 0.146,-1.335 -0.177,-0.161 -0.431,0.473 c -0.198,0.218 -0.258,0.283 -0.013,0.507 l -0.043,0.046 -0.733,-0.668 0.043,-0.046 c 0.244,0.221 0.303,0.158 0.502,-0.062 l 0.966,-1.061 c 0.199,-0.217 0.258,-0.283 0.013,-0.504 l 0.043,-0.046 0.746,0.678 c 0.507,0.461 0.329,0.841 0.191,0.992 -0.227,0.248 -0.555,0.207 -0.824,0.048 l -0.091,0.774 c -0.033,0.291 -0.055,0.504 0.164,0.738 l -0.042,0.046 -0.46,-0.419 m 0.045,-1.579 0.057,0.052 c 0.247,0.225 0.588,0.374 0.85,0.084 0.19,-0.208 0.191,-0.491 -0.019,-0.683 -0.073,-0.065 -0.155,-0.117 -0.235,-0.17 l -0.653,0.717 z" /><path
   style="fill:#1a2e5a"
   inkscape:connector-curvature="0"
   id="path127"
   d="m 24.475,56.8 c -0.181,0.234 -0.235,0.303 0.027,0.505 l -0.039,0.052 -0.784,-0.608 0.039,-0.05 c 0.261,0.203 0.315,0.132 0.496,-0.101 l 0.879,-1.133 c 0.181,-0.233 0.234,-0.304 -0.027,-0.506 l 0.039,-0.05 0.784,0.608 -0.039,0.05 c -0.261,-0.203 -0.315,-0.133 -0.496,0.101 L 24.475,56.8" /><path
   style="fill:#1a2e5a"
   inkscape:connector-curvature="0"
   id="path129"
   d="m 26.06,57.911 c -0.161,0.247 -0.208,0.321 0.069,0.501 l -0.034,0.053 -0.833,-0.539 0.035,-0.053 c 0.277,0.179 0.325,0.105 0.486,-0.142 l 0.941,-1.451 -0.292,-0.19 c -0.245,-0.158 -0.414,-0.058 -0.547,0.115 l -0.054,-0.034 0.318,-0.445 1.592,1.033 -0.276,0.471 -0.052,-0.035 c 0.104,-0.192 0.125,-0.388 -0.12,-0.546 l -0.292,-0.19 -0.941,1.452" /><path
   style="fill:#1a2e5a"
   inkscape:connector-curvature="0"
   id="path131"
   d="m 27.593,58.431 -0.272,0.23 c -0.052,0.039 -0.144,0.117 -0.174,0.175 -0.058,0.117 0.061,0.192 0.173,0.259 l -0.028,0.057 -0.655,-0.325 0.028,-0.056 c 0.172,0.065 0.279,0.015 0.483,-0.158 l 1.623,-1.383 0.056,0.029 -0.136,2.051 c -0.016,0.228 -0.044,0.434 0.185,0.559 l -0.028,0.057 -0.822,-0.409 0.028,-0.056 c 0.139,0.06 0.23,0.075 0.285,-0.036 0.034,-0.069 0.037,-0.201 0.043,-0.277 l 0.017,-0.317 -0.806,-0.4 m 0.883,-0.75 -0.78,0.659 0.718,0.357 0.062,-1.016 z" /><path
   style="fill:#1a2e5a"
   inkscape:connector-curvature="0"
   id="path133"
   d="m 31.289,59.087 -0.06,-0.021 c 0.091,-0.359 -0.043,-0.716 -0.411,-0.836 -0.19,-0.063 -0.431,0.017 -0.497,0.218 -0.152,0.463 1.032,0.941 0.817,1.594 -0.113,0.349 -0.482,0.55 -0.907,0.411 -0.154,-0.052 -0.254,-0.117 -0.33,-0.179 -0.08,-0.06 -0.137,-0.111 -0.218,-0.137 -0.077,-0.026 -0.112,0.026 -0.141,0.091 l -0.06,-0.021 0.249,-0.758 0.06,0.02 c -0.125,0.551 0.252,0.778 0.449,0.841 0.224,0.074 0.48,0.028 0.56,-0.216 0.166,-0.506 -0.991,-0.953 -0.774,-1.613 0.111,-0.342 0.501,-0.491 0.848,-0.378 0.121,0.04 0.211,0.103 0.28,0.163 0.074,0.057 0.126,0.112 0.17,0.125 0.08,0.026 0.12,-0.027 0.155,-0.091 l 0.06,0.021 -0.25,0.766" />
<g
   id="Layer_2">
</g>
</svg>